<svg width="40" height="40" viewBox="0 0 40 40" fill="none" xmlns="http://www.w3.org/2000/svg">
<rect width="40" height="40" rx="10" fill="white"/>
<mask id="mask0" mask-type="alpha" maskUnits="userSpaceOnUse" x="10" y="10" width="20" height="20">
<path fill-rule="evenodd" clip-rule="evenodd" d="M28.1818 13.6364H24.5454V12.7273C24.5454 11.1818 23.3636 10 21.8181 10H18.1818C16.6363 10 15.4545 11.1818 15.4545 12.7273V13.6364H11.8181C11.2727 13.6364 10.9091 14 10.9091 14.5455C10.9091 15.0909 11.2727 15.4545 11.8181 15.4545H12.7272V27.2727C12.7272 28.8182 13.9091 30 15.4545 30H24.5454C26.0909 30 27.2727 28.8182 27.2727 27.2727V15.4545H28.1818C28.7272 15.4545 29.0909 15.0909 29.0909 14.5455C29.0909 14 28.7272 13.6364 28.1818 13.6364ZM17.2727 12.7273C17.2727 12.1818 17.6363 11.8182 18.1818 11.8182H21.8181C22.3636 11.8182 22.7272 12.1818 22.7272 12.7273V13.6364H17.2727V12.7273ZM24.5454 28.1818C25.0909 28.1818 25.4545 27.8181 25.4545 27.2727V15.4545H14.5454V27.2727C14.5454 27.8181 14.9091 28.1818 15.4545 28.1818H24.5454ZM19.0909 19.0909V24.5454C19.0909 25.0909 18.7272 25.4545 18.1818 25.4545C17.6363 25.4545 17.2727 25.0909 17.2727 24.5454V19.0909C17.2727 18.5454 17.6363 18.1818 18.1818 18.1818C18.7272 18.1818 19.0909 18.5454 19.0909 19.0909ZM22.7272 24.5454V19.0909C22.7272 18.5454 22.3636 18.1818 21.8181 18.1818C21.2727 18.1818 20.9091 18.5454 20.9091 19.0909V24.5454C20.9091 25.0909 21.2727 25.4545 21.8181 25.4545C22.3636 25.4545 22.7272 25.0909 22.7272 24.5454Z" fill="white"/>
</mask>
<g mask="url(#mask0)">
<rect x="9.09088" y="9.0909" width="21.8182" height="21.8182" fill="#DF5060"/>
</g>
</svg>
