<svg width="40" height="40" viewBox="0 0 40 40" fill="none" xmlns="http://www.w3.org/2000/svg">
<rect width="40" height="40" rx="10" fill="white"/>
<mask id="mask0" mask-type="alpha" maskUnits="userSpaceOnUse" x="10" y="10" width="20" height="20">
<path fill-rule="evenodd" clip-rule="evenodd" d="M11.8181 25.4545H15.4545C15.7272 25.4545 15.9091 25.3636 16.0909 25.1818L26.0909 15.1818C26.4545 14.8182 26.4545 14.2727 26.0909 13.9091L22.4545 10.2727C22.0909 9.90909 21.5454 9.90909 21.1818 10.2727L11.1818 20.2727C11 20.4545 10.9091 20.6364 10.9091 20.9091V24.5455C10.9091 25.0909 11.2727 25.4545 11.8181 25.4545ZM12.7272 21.2727L21.8181 12.1818L24.1818 14.5454L15.0909 23.6363H12.7272V21.2727ZM28.1818 30C28.7272 30 29.0909 29.6364 29.0909 29.0909C29.0909 28.5454 28.7272 28.1818 28.1818 28.1818H11.8181C11.2727 28.1818 10.9091 28.5454 10.9091 29.0909C10.9091 29.6364 11.2727 30 11.8181 30H28.1818Z" fill="white"/>
</mask>
<g mask="url(#mask0)">
<rect x="9.09088" y="9.0909" width="21.8182" height="21.8182" fill="#347AF0"/>
</g>
</svg>
