<svg width="90" height="90" viewBox="0 0 90 90" fill="none" xmlns="http://www.w3.org/2000/svg">
<path d="M45 90C69.8528 90 90 69.8528 90 45C90 20.1472 69.8528 0 45 0C20.1472 0 0 20.1472 0 45C0 69.8528 20.1472 90 45 90Z" fill="#8BA7FF"/>
<path d="M4.61539 45C4.61539 54 7.5 62.1923 12.4615 68.8846L10.6154 56.0769L4.61539 45ZM13.2692 19.9615L18.5769 18.6923C23.0769 12.1154 29.4231 8.65383 35.1923 7.61537L26.0769 13.9615L35.0769 11.7692L41.5385 8.1923L39.6923 4.96153C29.0769 6.34614 19.6154 11.8846 13.2692 19.9615ZM19.1538 44.8846L22.9615 52.5L34.2692 53.5385L40.3846 76.6154H47.8846L56.4231 66.2308L55.9615 59.7692C59.6538 56.8846 62.5385 53.3077 63.6923 48.6923L57.9231 50.0769L50.4231 38.3077L52.1539 37.1538L59.5385 47.5385L66.8077 41.1923C63 40.7308 60.4615 38.8846 59.4231 35.6538L72.5769 37.7308L77.3077 47.4231L79.3846 34.5L85.2692 41.4231C83.7692 24.3461 71.5385 10.2692 55.3846 5.99999C55.3846 9.92307 53.1923 13.1538 50.0769 15L45.9231 12.5769L37.9615 17.1923L40.7308 19.8461L45 14.7692L44.1923 21C39 21 36.4615 21.8077 33.2308 23.5384L32.5385 26.7692L28.9615 25.9615L27.4615 30L30.5769 30.9231C32.3077 28.7308 33.6923 27.3461 37.0385 26.5385L40.5 30.3461L38.4231 31.0384L39.6923 32.0769L41.5385 29.8846L38.8846 26.1923C41.5385 26.1923 43.0385 27.8077 43.9615 31.8461L48.6923 24.9231L54.4615 27.3461L53.8846 28.8461L47.0769 29.4231V31.9615L52.2692 32.3077L50.6539 36.4615C41.1923 36.4615 38.4231 36.2308 36.4615 31.9615L28.6154 31.5C22.8462 34.9615 19.9615 39.4615 19.1538 44.8846ZM30.3462 21L34.9615 22.1538V17.5384L30.3462 21ZM55.9615 25.5L58.2692 24.2308L61.3846 30.6923L59.3077 31.1538L55.9615 25.5ZM57.2308 71.5385L59.3077 72.3461L62.7692 64.3846L58.3846 67.1538L57.2308 71.5385Z" fill="#E3E8FF"/>
</svg>
