<svg width="262" height="181" viewBox="0 0 262 181" fill="none" xmlns="http://www.w3.org/2000/svg">
<path opacity="0.8" d="M0.223877 180.269C10.9229 159.692 22.6891 139.662 35.4677 120.316C40.6119 112.518 46.4129 104.418 55.0597 100.834C62.6393 97.6871 71.505 98.6175 78.9751 102.065C86.4179 105.513 92.602 111.287 97.7189 117.717C102.124 123.217 106.831 129.839 113.863 130.413C121.361 131.043 127.299 124.476 131.923 118.511C147.109 98.9458 162.296 79.3538 177.483 59.7891C182.517 53.304 188.729 46.217 196.91 46.2443C204.244 46.2717 210.182 52.0727 214.751 57.819C241.567 91.4483 252.02 134.874 261.734 176.739L0.223877 180.269Z" fill="#C5D6F1"/>
<path fill-rule="evenodd" clip-rule="evenodd" d="M169.266 72.8104C187.964 72.8104 203.122 57.6524 203.122 38.954C203.122 20.2557 187.964 5.09766 169.266 5.09766C150.567 5.09766 135.409 20.2557 135.409 38.954C135.409 57.6524 150.567 72.8104 169.266 72.8104Z" stroke="#FFBE55"/>
<path d="M163.985 78.0908C170.974 81.5075 168.933 88.0524 168.933 88.0524C168.933 88.0524 165.028 93.6878 158.017 90.2711C151.029 86.8544 143.596 75.6725 143.596 75.6725C143.596 75.6725 156.997 74.6741 163.985 78.0908Z" fill="#99B9EE"/>
<path d="M163.985 78.0908C170.974 81.5075 168.933 88.0524 168.933 88.0524L143.596 75.6725C143.596 75.6725 156.997 74.6741 163.985 78.0908Z" fill="#E0E9F8"/>
<path d="M175.123 114.721C168.134 118.137 170.175 124.682 170.175 124.682C170.175 124.682 174.08 130.318 181.091 126.901C188.08 123.484 195.512 112.302 195.512 112.302C195.512 112.302 182.134 111.304 175.123 114.721Z" fill="#99B9EE"/>
<path d="M175.123 114.721C168.134 118.137 170.175 124.682 170.175 124.682L195.512 112.302C195.512 112.302 182.134 111.304 175.123 114.721Z" fill="#E4ECF8"/>
<path d="M191.297 172.96C182.4 184.075 168.933 179.017 168.933 179.017C168.933 179.017 161.035 166.992 169.931 155.854C178.828 144.716 203.61 135.642 203.61 135.642C203.61 135.642 200.194 161.822 191.297 172.96Z" fill="#E0E9F8"/>
<path d="M191.297 172.96C182.4 184.075 168.933 179.017 168.933 179.017L203.61 135.642C203.61 135.642 200.194 161.822 191.297 172.96Z" fill="#99B9EE"/>
<path d="M147.39 172.96C156.287 184.075 169.754 179.017 169.754 179.017C169.754 179.017 177.652 166.992 168.756 155.854C159.859 144.739 135.077 135.642 135.077 135.642C135.077 135.642 138.493 161.822 147.39 172.96Z" fill="#E0E9F8"/>
<path d="M147.39 172.96C156.287 184.075 169.754 179.017 169.754 179.017L135.077 135.642C135.077 135.642 138.493 161.822 147.39 172.96Z" fill="#99B9EE"/>
<rect x="168.622" y="57.3466" width="1.28681" height="121.936" fill="#99B9EE"/>
<path d="M145.26 8.13717C142.531 8.13717 140.335 10.3558 140.335 13.0625C140.335 10.3336 138.116 8.13717 135.409 8.13717C138.138 8.13717 140.335 5.91853 140.335 3.21179C140.313 5.91853 142.531 8.13717 145.26 8.13717Z" fill="#FFBE55"/>
<path fill-rule="evenodd" clip-rule="evenodd" d="M147.612 8.1372C143.574 8.1372 140.313 11.3986 140.313 15.4365C140.313 11.3986 137.051 8.1372 133.013 8.1372C137.051 8.1372 140.313 4.87581 140.313 0.837891C140.313 4.87581 143.596 8.1372 147.612 8.1372Z" stroke="#FFBE55"/>
<path d="M209.845 48.2058C208.269 48.2058 206.983 49.4926 206.983 51.0457C206.983 49.4704 205.696 48.2058 204.143 48.2058C205.718 48.2058 206.983 46.919 206.983 45.366C206.983 46.919 208.269 48.2058 209.845 48.2058Z" fill="#FFBE55"/>
<path fill-rule="evenodd" clip-rule="evenodd" d="M211.198 48.2058C208.868 48.2058 206.983 50.0916 206.983 52.4212C206.983 50.0916 205.097 48.2058 202.767 48.2058C205.097 48.2058 206.983 46.3199 206.983 43.9904C206.983 46.3199 208.868 48.2058 211.198 48.2058Z" stroke="#FFBE55" stroke-width="0.75"/>
<path d="M164.296 61.4733H174.125V66.3765C174.125 69.0832 171.928 71.2796 169.221 71.2796C166.515 71.2796 164.318 69.0832 164.318 66.3765V61.4733H164.296Z" fill="#99B9EE"/>
<path d="M169.266 66.5095C184.484 66.5095 196.821 54.1725 196.821 38.954C196.821 23.7356 184.484 11.3986 169.266 11.3986C154.047 11.3986 141.71 23.7356 141.71 38.954C141.71 54.1725 154.047 66.5095 169.266 66.5095Z" fill="#FFBE55"/>
<path fill-rule="evenodd" clip-rule="evenodd" d="M169.266 59.6318C180.686 59.6318 189.944 50.374 189.944 38.9541C189.944 27.5341 180.686 18.2764 169.266 18.2764C157.846 18.2764 148.588 27.5341 148.588 38.9541C148.588 50.374 157.846 59.6318 169.266 59.6318Z" stroke="#F7F7F7"/>
<path d="M170.286 30.1904C172.15 30.5454 173.259 31.9431 173.259 34.1617V34.5167L170.686 34.7608V34.3614C170.686 33.119 170.242 32.5421 169.266 32.5421C168.467 32.5421 167.912 33.0302 167.912 34.0286V34.3614C167.912 35.3376 168.445 36.1585 170.175 37.7337C172.549 39.9302 173.37 41.3501 173.37 43.2581V43.6797C173.37 45.8983 172.172 47.2517 170.286 47.5845V49.426H168.179V47.5845C166.315 47.1851 165.139 45.7874 165.139 43.6131V42.6147L167.713 42.3707V43.4356C167.713 44.6781 168.223 45.2549 169.266 45.2549C170.042 45.2549 170.73 44.7668 170.73 43.7684V43.3913C170.73 42.4151 170.198 41.5942 168.467 40.0189C166.093 37.8225 165.272 36.4026 165.272 34.4945V34.1174C165.272 31.9209 166.359 30.5675 168.201 30.2126V28.6373H170.309V30.1904H170.286Z" fill="#F7F7F7"/>
<path d="M122.495 108.693L117.898 110.166L117.225 109.846L115.928 108.565L116.056 106.466L118.602 106.402L122.495 108.693Z" fill="#FCD2B1"/>
<path d="M107.182 81.7833C107.182 81.7833 105.612 99.9151 118.586 106.402C118.058 107.027 115.879 108.02 115.879 108.02C115.879 108.02 103.178 100.316 103.626 91.7622C104.075 83.2089 107.182 81.7833 107.182 81.7833Z" fill="#EFAE35"/>
<path d="M82.5952 164.45C82.5952 164.45 84.293 172.298 85.5424 175.838C85.6866 176.254 85.158 176.591 84.8537 176.287C82.7554 174.22 79.8402 170.04 78.8791 169.079C77.6778 167.877 75.8358 165.635 75.8358 165.635L80.2406 161.759L83.1398 163.216L82.5952 164.45Z" fill="#0B4870"/>
<path d="M98.3564 170.216C98.3564 170.216 105.356 174.124 108.848 175.55C109.264 175.726 109.168 176.335 108.72 176.367C105.789 176.575 100.711 175.998 99.3655 176.078C97.6837 176.19 94.7685 176.078 94.7685 176.078V170.216L97.7798 168.999L98.3564 170.216Z" fill="#083751"/>
<path d="M105.452 102.334C105.452 102.334 104.779 137.364 104.395 138.149C104.011 138.918 98.3564 170.232 98.3564 170.232H94.7685C94.7685 170.232 95.4092 137.508 96.8187 136.291C96.8187 133.408 95.8417 102.622 98.5807 100.428C102.585 100.187 105.452 102.334 105.452 102.334Z" fill="#0B4870"/>
<path d="M93.3109 98.9541C88.1372 102.766 87.0961 120.578 92.3659 134.337C88.9221 140.519 78.6229 165.042 78.6229 165.042L81.6662 166.868C81.6662 166.868 102.665 137.989 101.864 135.009C101.063 132.03 102.585 100.171 102.585 100.171L93.3109 98.9541Z" fill="#0B4870"/>
<path d="M108.159 77.763C108.271 78.1955 108.415 78.6279 108.592 79.0444C109.713 81.7033 111.25 87.1973 111.138 88.1103C111.01 89.1034 107.502 92.483 106.573 95.0619C105.644 97.6407 105.484 102.334 105.484 102.334L93.3429 98.9541C93.3429 98.9541 96.7226 90.625 96.8507 86.8609C96.9789 83.0968 98.2763 75.3123 103.066 74.5275C106.717 73.9188 107.839 76.5457 108.159 77.763Z" fill="#FDB32A"/>
<path d="M111.859 61.8737C112.083 61.313 112.003 60.6723 111.651 60.1758C109.825 57.6931 106.541 56.2996 103.498 56.8442C100.118 57.4528 97.2832 60.368 96.7707 63.7637C96.5785 65.0772 96.6906 66.4226 96.4183 67.72C96.0979 69.2417 95.217 70.6512 93.9836 71.5963C92.446 72.7816 90.4598 73.23 88.7459 74.1591C87.016 75.1041 85.5905 76.5136 84.3732 78.0673C83.1558 79.621 82.0987 81.3669 81.7623 83.3211C81.4259 85.2752 81.9065 87.4375 83.3641 88.767C84.2931 89.6159 85.4944 90.0484 86.6797 90.4488C89.0503 91.2497 91.533 91.9705 94.0157 91.6982C96.4984 91.4259 99.0131 89.9523 99.782 87.5657C100.855 84.202 98.2123 80.6622 98.6928 77.1703C99.0291 74.7998 100.759 72.8456 102.681 71.4201C104.603 69.9945 106.782 68.9053 108.608 67.3676C109.969 66.2304 111.266 63.3152 111.859 61.8737Z" fill="#0B4870"/>
<path d="M108.576 71.9327C107.967 73.182 107.406 76.4656 107.935 77.8591C108.415 79.2366 108.239 79.4609 108.239 79.4609L102.905 75.0881L104.139 69.0815L108.576 71.9327Z" fill="#FCD2B1"/>
<path d="M112.916 66.8871C112.916 69.9785 112.115 73.1339 109.553 73.1339C106.99 73.1339 103.626 69.9785 103.626 66.8871C103.626 63.7957 105.708 61.281 108.271 61.281C110.834 61.281 112.916 63.7957 112.916 66.8871Z" fill="#FFE3CA"/>
<path d="M112.644 60.7204C113.557 60.6404 114.182 61.6174 113.733 62.4023C112.852 63.988 111.282 65.5737 107.63 65.1252C105.965 64.917 103.306 65.1252 103.146 66.2465L101.864 63.2031C101.864 63.2031 102.185 61.2811 102.505 61.2811C102.825 61.2811 105.997 61.2811 105.997 61.2811L112.644 60.7204Z" fill="#0B4870"/>
<path d="M105.708 64.8049C105.228 65.7659 104.972 67.4798 104.331 67.8001C103.53 67.3356 102.537 64.917 102.601 64.933C102.665 64.949 103.466 64.4685 103.626 64.4685C103.786 64.4685 105.708 64.8049 105.708 64.8049Z" fill="#0B4870"/>
<path d="M104.505 69.3359C104.957 69.1328 105.059 68.3795 104.732 67.6534C104.406 66.9272 103.775 66.5031 103.323 66.7062C102.872 66.9092 102.77 67.6625 103.096 68.3887C103.423 69.1149 104.053 69.539 104.505 69.3359Z" fill="#FFE3CA"/>
<path d="M104.091 70.3468C104.551 70.3468 104.924 69.9739 104.924 69.5139C104.924 69.0539 104.551 68.681 104.091 68.681C103.631 68.681 103.258 69.0539 103.258 69.5139C103.258 69.9739 103.631 70.3468 104.091 70.3468Z" fill="#FFBE55"/>
<path d="M117.209 127.081L107.262 118.287C106.91 117.983 106.878 117.438 107.182 117.086L113.349 109.478C113.653 109.125 114.198 109.093 114.55 109.397L125.122 118.736C125.474 119.04 125.506 119.585 125.202 119.937L118.41 127.001C118.09 127.353 117.561 127.385 117.209 127.081Z" fill="#99B9EE"/>
<path d="M126.996 129.916L117.898 125.703L120.252 122.98L127.748 127.962L127.861 128.042L126.996 129.916Z" fill="#99B9EE"/>
<path fill-rule="evenodd" clip-rule="evenodd" d="M118.09 108.821C120.573 107.956 122.591 108.196 123.872 109.301C125.17 110.423 125.698 112.425 125.17 115.068L124.064 120.53L112.692 110.711L118.09 108.821ZM124.369 114.923C124.833 112.649 124.465 110.871 123.344 109.91C122.238 108.949 120.477 108.837 118.362 109.59L114.262 111.015L123.536 119.04L124.369 114.923Z" fill="#99B9EE"/>
<path d="M126.996 129.916C126.419 128.843 127.012 128.266 127.748 127.962L127.861 128.042L126.996 129.916Z" fill="#99B9EE"/>
<path d="M100.327 78.9002C100.102 86.1721 103.05 104.816 108.576 112.168C109.521 111.672 110.546 111.111 110.546 111.111C110.546 111.111 103.498 94.9017 105.756 81.2868C105.997 79.605 105.756 78.4037 105.244 77.5707C103.898 75.3123 100.407 76.2894 100.327 78.9002Z" fill="#EFAE35"/>
<path d="M108.576 112.185C108.576 112.185 110.161 115.468 110.546 115.821C110.914 116.173 113.637 117.631 114.406 117.919C115.175 118.191 113.365 116.541 113.365 116.541C113.365 116.541 114.774 117.438 115.431 117.791C115.527 117.839 115.607 117.727 115.543 117.647C115.047 117.054 113.829 116.093 113.829 116.093C113.829 116.093 115.735 117.23 116.584 117.679C116.68 117.727 116.76 117.615 116.696 117.534C116.088 116.958 114.71 115.885 114.47 115.756C115.479 116.189 116.2 116.605 116.648 116.814C116.712 116.846 116.76 116.766 116.712 116.718C115.831 115.917 112.083 113.258 111.891 113.21C111.122 113.034 110.402 111.208 110.402 111.208L108.576 112.185Z" fill="#FCD2B1"/>
<path d="M117.898 110.166L117.225 109.846L117.145 109.734C117.145 109.734 118.955 107.892 119.419 107.684C119.724 107.555 121.005 108.052 121.822 108.388C122.062 108.484 122.046 108.837 121.79 108.917C120.493 109.333 117.898 110.166 117.898 110.166Z" fill="#FFE4D2"/>
<path d="M129.094 128.939L151.342 139.398" stroke="#CCE9FF" stroke-dasharray="12 14"/>
<path d="M127.861 130.989L142.276 158.507" stroke="#CCE9FF" stroke-dasharray="12 14"/>
<path d="M132.378 133.68L151.342 158.507" stroke="#CCE9FF" stroke-dasharray="12 14"/>
<path d="M136.766 135.49L151.855 146.894" stroke="#CCE9FF" stroke-dasharray="12 14"/>
</svg>
