<svg width="107" height="165" viewBox="0 0 107 165" fill="none" xmlns="http://www.w3.org/2000/svg">
<rect opacity="0.5" x="6.35609" y="133.172" width="12.4844" height="31.3879" fill="#C5D6F1"/>
<rect x="34.4884" y="105.618" width="12.4853" height="58.9426" fill="#BCD1F3"/>
<rect opacity="0.5" x="62.6222" y="111.713" width="12.4844" height="52.8474" fill="#C5D6F1"/>
<rect x="90.755" y="81.8746" width="12.4848" height="82.6857" fill="#BCD1F3"/>
<path d="M33.6695 30.3862C33.6056 29.3166 31.7582 27.1384 32.0399 26.8655C32.2426 26.6694 32.9618 27.3427 33.3501 27.7362C33.3956 27.7823 33.4632 27.7974 33.5238 27.7753C33.5845 27.7533 33.6263 27.698 33.6314 27.6336C33.7159 26.5829 33.9783 23.6421 34.2715 23.6145C34.5684 23.5864 34.7168 25.4466 34.7582 26.0712C34.7596 26.09 34.7738 26.1057 34.7927 26.108C34.8115 26.1103 34.8294 26.0992 34.8354 26.0813C35.0638 25.4204 35.834 23.2873 36.1645 23.5611C36.4788 23.8216 35.9912 25.8645 35.789 26.6506C35.7839 26.6699 35.7941 26.6902 35.8129 26.6975C35.8313 26.7049 35.8524 26.6975 35.8625 26.68C36.26 25.9759 37.3088 24.1907 37.5918 24.4185C37.88 24.6509 37.0679 26.5861 36.7669 27.2728C36.7591 27.2907 36.7656 27.3119 36.7821 27.3225C36.7986 27.3331 36.8202 27.3299 36.8336 27.3151C37.2876 26.8015 38.4765 25.4927 38.4696 25.8774C38.4613 26.3528 36.3731 30.307 35.6893 30.9688C35.0055 31.632 33.6695 30.3862 33.6695 30.3862Z" fill="#FA968C"/>
<path d="M14.9223 43.6212C16.3377 46.7617 18.3745 50.3289 20.8373 52.7772C25.6291 57.5267 31.7789 56.2859 33.9255 45.1786C34.2991 43.5047 34.5597 41.8383 34.7789 40.1751C35.2251 36.8523 35.3975 33.5396 35.5505 30.2371C35.5735 29.7373 35.1874 29.313 34.6884 29.2899C34.2362 29.2688 33.8465 29.584 33.7596 30.0148L33.7559 30.0332C33.1066 33.2395 32.4535 36.4395 31.6162 39.5524C31.1856 41.1033 30.7394 42.6414 30.2196 44.1237C29.7688 45.5279 27.9577 49.8903 26.5491 50.3174C26.5027 50.3095 26.4567 50.3703 26.4296 50.3441C26.4039 50.3201 26.3906 50.3178 26.3745 50.3321C26.3483 50.2971 26.3304 50.2819 26.3074 50.2865C26.2297 50.2239 26.1392 50.2134 25.9724 50.0776C25.6654 49.876 25.2453 49.4784 24.8465 48.9823C24.0289 48.0121 23.2679 46.73 22.5983 45.399C21.4365 43.1416 20.7633 41.5184 20.7633 41.5184C19.3331 37.5914 13.4016 39.4718 14.8336 43.4039C14.8598 43.4753 14.8915 43.5526 14.9223 43.6212Z" fill="#FA968C"/>
<path d="M24.4287 47.8478C24.4236 47.84 24.4177 47.8327 24.4122 47.8248C23.6888 46.7645 23.0179 45.6567 22.3993 44.5205C21.7862 43.4118 21.1612 42.1798 20.7237 41.1314L20.7021 41.0789C20.6667 40.9952 20.6277 40.9123 20.5849 40.8304C19.7715 39.2832 17.8602 38.6895 16.3152 39.5036C14.7702 40.3182 14.1773 42.2322 14.9903 43.7795C15.7531 45.2306 16.4917 46.4175 17.3349 47.6665C17.9057 48.4908 18.5133 49.2906 19.1387 50.0781C19.6047 49.5801 23.3156 48.2473 24.4287 47.8478Z" fill="#FFBE55"/>
<path d="M21.3327 69.8344C18.5822 72.9947 2.70674 74.3137 2.70674 74.3137C1.53533 72.9519 3.2481 66.7624 3.66124 60.4795C4.10794 53.6862 4.36529 46.1883 4.48294 42.137C4.53165 40.465 5.89838 39.1387 7.56841 39.1387H17.6429C19.1957 39.1387 20.4884 40.3251 20.6162 41.8751C20.8805 45.0829 21.3405 50.658 21.7941 56.124C22.2541 61.6696 23.71 67.1025 21.3327 69.8344Z" fill="#FAB9AF"/>
<path d="M12.1746 122.649L12.1976 128.902L11.6553 131.947C11.5615 132.474 11.9508 132.962 12.4857 132.978C15.0418 133.057 21.5873 133.229 21.7624 132.946C22.5854 131.612 18.8653 131.099 16.1438 130.044C13.4223 128.989 15.3 118.641 15.3 118.641L12.1746 122.649Z" fill="#FA968C"/>
<path d="M16.1438 130.044C16.1291 130.039 16.1167 130.029 16.1024 130.023C15.454 130.265 14.7242 130.408 13.9016 130.408C13.1962 130.408 12.5569 130.306 11.9797 130.125L11.6553 131.947C11.5615 132.474 11.9508 132.962 12.4857 132.978C15.0418 133.057 21.5873 133.23 21.7624 132.946C22.585 131.613 18.8648 131.099 16.1438 130.044Z" fill="#0B4870"/>
<path d="M21.3285 72.1134C21.4269 76.4597 19.7201 104.033 16.3483 104.109C12.9765 104.186 9.21731 76.7367 9.11851 72.3904C9.02016 68.0441 11.6737 64.459 15.045 64.3826C18.4172 64.3062 21.2302 67.767 21.3285 72.1134Z" fill="#0091C8"/>
<path d="M11.6916 98.3813C11.357 100.774 11.3028 116.102 11.8405 123.888H14.9099C16.5583 116.335 18.3198 101.696 18.647 99.3569C18.6511 99.327 18.653 99.298 18.6566 99.2681C20.4907 91.1416 21.4011 75.3179 21.3285 72.1134C21.2302 67.767 18.4168 64.3062 15.0454 64.3826C11.6737 64.4594 9.02062 68.0446 9.11897 72.3904C9.18055 75.119 11.8501 97.2482 11.6916 98.3813Z" fill="#0B4870"/>
<path d="M4.80785 122.649L4.83083 128.902L4.28855 131.947C4.1948 132.474 4.58404 132.962 5.11897 132.978C7.67504 133.057 14.2205 133.229 14.3956 132.946C15.2187 131.612 11.4986 131.099 8.77706 130.044C6.05555 128.989 7.93331 118.641 7.93331 118.641L4.80785 122.649Z" fill="#FA968C"/>
<path d="M8.77706 130.044C8.76235 130.039 8.74994 130.029 8.7357 130.023C8.08726 130.265 7.35748 130.408 6.53487 130.408C5.82945 130.408 5.1902 130.306 4.613 130.125L4.28855 131.947C4.1948 132.474 4.58404 132.962 5.11897 132.978C7.67504 133.057 14.2201 133.23 14.3956 132.946C15.2187 131.613 11.4986 131.099 8.77706 130.044Z" fill="#0B4870"/>
<path d="M13.9623 72.1134C14.0606 76.4597 12.3538 104.033 8.98202 104.109C5.61024 104.186 2.58037 76.6355 2.48156 72.2892C2.38322 67.9428 4.30739 64.459 7.67871 64.3826C11.0505 64.3062 13.8635 67.767 13.9623 72.1134Z" fill="#0091C8"/>
<path d="M4.32485 98.3813C3.99029 100.774 3.93606 116.102 4.47374 123.889H7.54314C9.19157 116.335 10.9531 101.696 11.2803 99.357C11.2844 99.3271 11.2862 99.2981 11.2899 99.2682C13.124 91.1416 14.7637 75.2166 14.6911 72.0121C14.5928 67.6658 11.0505 64.3062 7.67871 64.3826C4.30692 64.4595 2.38275 67.9433 2.48156 72.2892C2.5436 75.0178 4.48339 97.2483 4.32485 98.3813Z" fill="#0B4870"/>
<path d="M17.738 39.139H16.101C15.5312 40.4603 14.3253 41.4816 12.454 41.4816C10.5794 41.4816 9.37402 40.4608 8.80509 39.139H7.31106C5.78395 39.139 4.53349 40.3485 4.48983 41.8773C4.37586 45.861 4.11713 53.5384 3.66079 60.4794C3.24764 66.7623 1.53487 72.6007 2.70628 74.3136C2.70628 74.3136 18.5817 72.9941 21.3322 69.8343C23.7095 67.1024 22.2536 61.6695 21.7931 56.1239C21.335 50.6049 20.8703 44.9742 20.6075 41.7821C20.4852 40.2864 19.2371 39.139 17.738 39.139Z" fill="#FFBE55"/>
<path d="M12.0202 35.4675V35.4675C10.4774 35.8108 8.94939 34.837 8.6061 33.292L7.79222 29.6277L10.585 29.006L12.0202 35.4675Z" fill="#0B4870"/>
<path d="M14.5151 39.1391H9.24765L10.7665 33.8798L14.357 34.3248L14.5151 39.1391Z" fill="#FAB9AF"/>
<path d="M14.357 34.3248L10.7665 33.8798L10.0588 36.3309C10.8625 37.2384 12.0546 38.6472 13.3612 38.6472C13.7757 38.6472 14.1534 38.5303 14.4931 38.3144L14.357 34.3248Z" fill="#FA968C"/>
<path d="M14.9007 37.1201V37.1201C12.5358 37.6466 10.192 36.1537 9.6663 33.7854L8.60564 29.0083L15.9503 27.3727C15.9503 27.3727 16.7784 31.1018 16.8023 33.738C16.8198 35.7155 16.1061 36.8514 14.9007 37.1201Z" fill="#FAB9AF"/>
<path d="M8.63447 30.9311L10.0149 30.6236L10.1541 31.2504L8.77365 31.5578L8.63447 30.9311Z" fill="#41378C"/>
<path d="M10.7109 32.6045C10.9177 33.5364 10.6401 34.3915 10.0905 34.5139C9.54084 34.6363 8.66355 33.5493 8.45674 32.6174C8.24994 31.6854 8.79176 31.2606 9.34094 31.1382C9.89057 31.0158 10.5036 31.6721 10.7109 32.6045Z" fill="#FAB9AF"/>
<path d="M16.8956 29.2237C16.9351 28.5904 16.8322 27.9567 16.5942 27.3685V27.3685C16.0036 25.9096 14.3722 25.2819 12.8878 25.7992C12.7362 25.8521 12.5753 25.8981 12.4053 25.9359L9.92642 26.4868C8.43653 26.8181 7.49719 28.2959 7.82853 29.7879L7.95721 30.3664L9.42688 31.2201L10.0257 32.2648L10.1226 32.2432C10.5955 32.1378 10.9007 31.6831 10.8267 31.21C10.7049 30.4299 11.0919 29.6682 11.8616 29.4966L14.0615 29.0065C15.4007 28.7082 16.2568 29.2734 16.4797 30.2762L16.5997 31.14L16.8956 29.2237Z" fill="#0B4870"/>
<path d="M9.47834 27.4817C9.31014 28.8444 14.2008 30.5712 15.4907 30.7309C16.7807 30.8906 17.9623 29.9149 18.1305 28.5522C18.2987 27.1895 17.3892 25.9552 16.0992 25.7959C14.8097 25.6362 9.64654 26.119 9.47834 27.4817Z" fill="#0B4870"/>
<path d="M3.8901 44.2816C5.51235 46.4962 8.2936 49.4085 11.6231 51.9231C21.8069 59.3607 32.7058 60.1127 41.5937 51.6939C41.9572 51.3497 41.9733 50.7753 41.6295 50.4108C41.3354 50.0997 40.8736 50.0427 40.5188 50.2479L40.4779 50.2718C34.6815 53.6222 29.4917 54.9974 22.9577 52.2485C14.3915 48.552 8.31428 39.6587 8.95398 40.5069C7.90343 39.1138 5.92411 38.8377 4.53303 39.8898C3.15389 40.9326 2.87218 42.8909 3.8901 44.2816Z" fill="#FAB9AF"/>
<path d="M13.6268 45.6134C11.5059 43.7072 8.80876 39.9513 8.80876 39.9513C8.80876 39.9513 7.53027 38.4381 4.8993 39.5417C2.79819 40.4231 3.22375 42.9092 3.22375 42.9092C3.27476 43.2553 3.97696 47.3563 8.80785 50.9833C8.80785 50.9828 13.9829 45.9333 13.6268 45.6134Z" fill="#FFBE55"/>
<path d="M48.4783 0.358765C37.494 0.371651 28.5767 9.29024 28.5767 20.2922C28.5767 25.5797 31.2628 30.1451 33.9839 34.2378C39.9958 43.2816 36.5799 48.1811 40.05 48.1811H48.4669H56.9273C60.4007 48.1811 56.9747 43.2811 62.9894 34.2378C65.709 30.146 68.3887 25.7228 68.3887 20.4372C68.3901 9.43291 59.4632 0.371651 48.4783 0.358765Z" fill="#FFBE55"/>
<path fill-rule="evenodd" clip-rule="evenodd" d="M38.7757 27.7777C38.5629 27.5099 38.1714 27.4657 37.9062 27.6774C37.6387 27.8919 37.5955 28.2817 37.8079 28.5491C37.9172 28.6857 38.0418 28.8183 38.1764 28.9481L44.7775 49.1167C44.8644 49.3777 45.1052 49.5438 45.3662 49.5438C45.4292 49.5438 45.494 49.5337 45.5588 49.5125C45.8837 49.4053 46.0597 49.0573 45.9522 48.7301L39.8557 30.0963C41.3354 30.8189 43.187 31.1498 44.6971 30.6688C45.0239 30.5644 45.3203 30.4263 45.5887 30.2569C46.3272 30.7411 47.2302 31.0296 48.1884 31.0296C49.3221 31.0296 50.3929 30.6661 51.2049 30.0172C51.658 30.2597 52.1838 30.4603 52.7693 30.6076C54.5004 31.0471 56.0312 30.9408 57.306 30.3172L51.2771 48.7311C51.1723 49.0569 51.3488 49.4067 51.6705 49.5125C51.7357 49.5346 51.8019 49.5433 51.8662 49.5433C52.1268 49.5433 52.3694 49.3781 52.4549 49.1176L59.0657 28.9163C59.0906 28.8861 59.1176 28.8582 59.1446 28.8301C59.1765 28.7971 59.2085 28.764 59.2375 28.7267C59.4476 28.4575 59.4012 28.0672 59.1323 27.8569C58.8625 27.6452 58.4742 27.6926 58.2651 27.9623C57.0689 29.492 55.3207 29.9785 53.073 29.4083C52.8198 29.3443 52.4512 29.232 52.0707 29.0599C52.4444 28.4736 52.6291 27.8067 52.5983 27.1311C52.5441 25.7845 52.0873 24.7969 51.3455 24.4191C50.9122 24.1991 50.4315 24.2267 50.0303 24.4936C49.3796 24.9285 49.0611 25.918 49.1603 27.2061C49.2205 27.9885 49.5611 28.6834 50.1447 29.2537C49.1319 29.8869 47.6103 29.955 46.522 29.3705C46.9352 28.7865 47.176 28.0502 47.2233 27.1914C47.2904 25.9884 46.9195 25.0141 46.2325 24.5875C45.7936 24.3141 45.2674 24.3008 44.823 24.5557C44.1208 24.9524 43.7334 25.9042 43.7532 27.1666C43.7665 27.9825 44.0827 28.7488 44.6043 29.3807C44.5137 29.4216 44.4195 29.4571 44.3198 29.4884C42.4724 30.077 39.7748 29.0346 38.7757 27.7777ZM50.7196 25.5227L50.7235 25.52C50.7326 25.5137 50.7383 25.5098 50.7472 25.5098C50.7568 25.5098 50.7683 25.5139 50.7858 25.5227C50.9669 25.6147 51.3184 26.08 51.363 27.1817C51.3823 27.5992 51.2651 28.012 51.033 28.3852C50.6898 28.0571 50.4361 27.6374 50.3956 27.109C50.3226 26.1532 50.5482 25.6363 50.7196 25.5227ZM45.5009 25.6119C45.477 25.6119 45.4563 25.6193 45.4338 25.6331C45.2628 25.7298 44.9765 26.1582 44.9926 27.1477C45.0013 27.6687 45.2118 28.1671 45.5592 28.5873C45.812 28.2016 45.9572 27.7124 45.9889 27.1228C46.0409 26.1849 45.7573 25.7495 45.5836 25.6405C45.5491 25.6207 45.5234 25.6119 45.5009 25.6119Z" fill="#0B4870"/>
<path d="M55.4871 48.181H41.4632C40.6493 48.181 39.9899 49.6823 39.9899 50.4987C39.9899 51.3147 40.6498 52.8164 41.4632 52.8164H46.1631L41.0156 53.7773C40.2431 54.0277 39.8184 54.5049 40.0689 55.2804C40.2697 55.9049 40.8488 56.1253 41.4719 56.1253C41.6213 56.1253 41.7748 56.0107 41.9264 55.9643L55.9448 51.3657C56.6328 51.1416 57.0583 50.2962 56.9453 49.5792C56.8295 48.8612 56.2123 48.181 55.4871 48.181Z" fill="#0B4870"/>
<path d="M55.4701 58.6105H50.7835L55.925 56.2827C56.698 56.0328 57.1227 54.8717 56.8713 54.0953C56.6199 53.3217 55.7899 52.7303 55.0147 52.9816L41.0073 57.4521C40.3166 57.6781 39.8933 58.6699 40.0064 59.3869C40.1181 60.1049 40.7375 60.9282 41.4632 60.9282H42.7366L44.965 64.4051H51.9149L54.1783 60.9282H55.4701C56.2849 60.9282 56.9425 60.5844 56.9425 59.7694C56.9425 58.9538 56.2849 58.6105 55.4701 58.6105Z" fill="#0B4870"/>
<path d="M7.44663 117.371L0.360229 108.893L34.8846 79.8304L64.9062 84.8413L98.9668 58.4946L100.341 59.7303L67.8639 95.9371L38.4089 89.5291L7.44663 117.371Z" fill="#BCD1F3"/>
<path d="M100.828 75.9852L81.0748 57.0163L106.575 50.1835L100.828 75.9852Z" fill="#BCD1F3"/>
<path d="M39.8736 50.6543C40.5698 49.8411 40.7532 46.9886 41.1447 46.9886C41.4264 46.9886 41.4765 47.9735 41.4825 48.5267C41.4829 48.5911 41.5215 48.6496 41.5804 48.6758C41.6392 48.702 41.7081 48.6914 41.7564 48.6486C42.5464 47.9519 44.7757 46.0199 45.0055 46.204C45.2385 46.3903 44.0542 47.8313 43.6507 48.3095C43.6383 48.3237 43.6383 48.3449 43.6498 48.3601C43.6617 48.3748 43.6819 48.3794 43.6989 48.3711C44.3221 48.055 46.3561 47.0572 46.4034 47.4843C46.4485 47.8902 44.6801 49.02 43.9894 49.4444C43.9724 49.4549 43.9655 49.4761 43.9737 49.4945C43.982 49.5129 44.0022 49.5221 44.0215 49.5166C44.7959 49.287 46.789 48.7329 46.834 49.0941C46.88 49.4618 44.9531 50.2879 44.2605 50.5724C44.2421 50.5797 44.2325 50.5995 44.2366 50.6184C44.2412 50.6377 44.2591 50.6506 44.2784 50.6487C44.9613 50.5954 46.7242 50.4817 46.4526 50.7537C46.1167 51.0901 41.8713 52.48 40.9204 52.48C39.9701 52.48 39.8736 50.6543 39.8736 50.6543Z" fill="#FAB9AF"/>
</svg>
