<svg width="312" height="175" viewBox="0 0 312 175" fill="none" xmlns="http://www.w3.org/2000/svg">
<path fill-rule="evenodd" clip-rule="evenodd" d="M311.12 173.888C311.12 173.888 315.113 147.643 289.449 134.756C263.786 121.87 258.652 110.325 276.128 80.3374C293.603 50.3499 292.167 0.234248 195.62 0.00043571C99.073 -0.233377 115.45 93.7209 72.4719 73.948C29.4936 54.175 -17.065 109.467 6.21429 141.797C10.4728 147.711 13.9842 154.311 17.2325 158.602C25.8223 169.95 32.6485 174.127 32.6485 174.127L311.12 173.888Z" fill="#E3EAF8"/>
<path fill-rule="evenodd" clip-rule="evenodd" d="M38.0976 135.605C38.3375 135.498 38.48 135.254 38.48 134.906C38.48 134.574 38.3375 134.345 38.0976 134.246C38.0088 134.209 37.9065 134.19 37.793 134.19H36.611V135.665H37.793C37.9065 135.665 38.0088 135.644 38.0976 135.605Z" fill="#E0E9F8"/>
<path fill-rule="evenodd" clip-rule="evenodd" d="M38.0976 138.667C38.453 138.57 38.6647 138.293 38.6647 137.88C38.6647 137.5 38.453 137.231 38.0976 137.136C38.0053 137.111 37.9036 137.098 37.793 137.098H36.611V138.694L37.793 138.705C37.9034 138.705 38.0053 138.692 38.0976 138.667Z" fill="#E0E9F8"/>
<rect opacity="0.5" x="119.365" y="142.172" width="12.5023" height="31.3879" fill="#C5D6F1"/>
<rect x="147.537" y="114.618" width="12.5032" height="58.9426" fill="#BCD1F3"/>
<rect opacity="0.5" x="175.712" y="120.713" width="12.5023" height="52.8474" fill="#C5D6F1"/>
<rect x="203.885" y="90.8746" width="12.5028" height="82.6857" fill="#BCD1F3"/>
<path d="M146.717 39.3863C146.653 38.3167 144.803 36.1385 145.085 35.8656C145.288 35.6696 146.009 36.3429 146.398 36.7364C146.443 36.7824 146.511 36.7976 146.571 36.7755C146.632 36.7534 146.674 36.6982 146.679 36.6337C146.764 35.583 147.027 32.6422 147.32 32.6146C147.618 32.5866 147.766 34.4468 147.808 35.0713C147.809 35.0901 147.823 35.1058 147.842 35.1081C147.861 35.1104 147.879 35.0994 147.885 35.0814C148.114 34.4205 148.885 32.2874 149.216 32.5612C149.531 32.8217 149.042 34.8646 148.84 35.6507C148.835 35.67 148.845 35.6903 148.864 35.6976C148.882 35.705 148.903 35.6976 148.914 35.6801C149.312 34.976 150.362 33.1908 150.645 33.4186C150.934 33.651 150.121 35.5863 149.819 36.2729C149.811 36.2909 149.818 36.312 149.834 36.3226C149.851 36.3332 149.873 36.33 149.886 36.3153C150.341 35.8016 151.531 34.4928 151.524 34.8775C151.516 35.3529 149.425 39.3071 148.74 39.9689C148.055 40.6321 146.717 39.3863 146.717 39.3863Z" fill="#FA968C"/>
<path d="M127.943 52.6212C129.361 55.7617 131.4 59.3289 133.867 61.7772C138.665 66.5267 144.824 65.2859 146.974 54.1786C147.348 52.5047 147.609 50.8383 147.828 49.1751C148.275 45.8523 148.448 42.5396 148.601 39.2371C148.624 38.7373 148.237 38.313 147.738 38.2899C147.285 38.2688 146.895 38.584 146.808 39.0148L146.804 39.0332C146.154 42.2395 145.5 45.4395 144.661 48.5524C144.23 50.1033 143.783 51.6414 143.263 53.1237C142.811 54.5279 140.997 58.8903 139.587 59.3174C139.54 59.3095 139.494 59.3703 139.467 59.3441C139.441 59.3201 139.428 59.3178 139.412 59.3321C139.386 59.2971 139.368 59.2819 139.345 59.2865C139.267 59.2239 139.176 59.2134 139.009 59.0776C138.702 58.876 138.281 58.4784 137.882 57.9823C137.063 57.0121 136.301 55.73 135.63 54.399C134.467 52.1416 133.793 50.5184 133.793 50.5184C132.36 46.5914 126.42 48.4718 127.854 52.4039C127.881 52.4753 127.912 52.5526 127.943 52.6212Z" fill="#FA968C"/>
<path d="M137.463 56.8478C137.458 56.84 137.452 56.8327 137.447 56.8248C136.722 55.7645 136.05 54.6567 135.431 53.5205C134.817 52.4118 134.191 51.1798 133.753 50.1314L133.731 50.0789C133.696 49.9952 133.657 49.9123 133.614 49.8304C132.799 48.2832 130.885 47.6895 129.338 48.5036C127.791 49.3182 127.197 51.2322 128.011 52.7795C128.775 54.2306 129.515 55.4175 130.359 56.6665C130.931 57.4908 131.539 58.2906 132.166 59.0781C132.632 58.5801 136.349 57.2473 137.463 56.8478Z" fill="#FFBE55"/>
<path d="M134.363 78.8344C131.608 81.9947 115.71 83.3137 115.71 83.3137C114.537 81.9519 116.252 75.7624 116.666 69.4795C117.113 62.6862 117.371 55.1883 117.489 51.137C117.538 49.465 118.906 48.1387 120.579 48.1387H130.668C132.223 48.1387 133.517 49.3251 133.645 50.8751C133.91 54.0829 134.371 59.658 134.825 65.124C135.286 70.6696 136.744 76.1025 134.363 78.8344Z" fill="#FAB9AF"/>
<path d="M125.192 131.649L125.215 137.902L124.672 140.947C124.578 141.474 124.967 141.962 125.503 141.978C128.063 142.057 134.618 142.229 134.793 141.946C135.617 140.612 131.892 140.099 129.166 139.044C126.441 137.989 128.322 127.641 128.322 127.641L125.192 131.649Z" fill="#FA968C"/>
<path d="M129.166 139.044C129.152 139.039 129.139 139.029 129.125 139.023C128.476 139.265 127.745 139.408 126.921 139.408C126.215 139.408 125.574 139.306 124.996 139.125L124.672 140.947C124.578 141.474 124.967 141.962 125.503 141.978C128.063 142.057 134.618 142.23 134.793 141.946C135.617 140.613 131.891 140.099 129.166 139.044Z" fill="#0B4870"/>
<path d="M134.359 81.1134C134.457 85.4597 132.748 113.033 129.371 113.109C125.995 113.186 122.23 85.7367 122.131 81.3904C122.033 77.0441 124.69 73.459 128.066 73.3826C131.443 73.3062 134.26 76.767 134.359 81.1134Z" fill="#0091C8"/>
<path d="M124.708 107.381C124.373 109.774 124.319 125.102 124.857 132.888H127.931C129.582 125.335 131.346 110.696 131.673 108.357C131.677 108.327 131.679 108.298 131.683 108.268C133.52 100.142 134.431 84.3179 134.359 81.1134C134.26 76.767 131.443 73.3062 128.067 73.3826C124.69 73.4594 122.033 77.0446 122.132 81.3904C122.193 84.119 124.867 106.248 124.708 107.381Z" fill="#0B4870"/>
<path d="M117.814 131.649L117.837 137.902L117.294 140.947C117.2 141.474 117.59 141.962 118.126 141.978C120.686 142.057 127.24 142.229 127.416 141.946C128.24 140.612 124.515 140.099 121.789 139.044C119.064 137.989 120.944 127.641 120.944 127.641L117.814 131.649Z" fill="#FA968C"/>
<path d="M121.789 139.044C121.774 139.039 121.762 139.029 121.748 139.023C121.098 139.265 120.368 139.408 119.544 139.408C118.837 139.408 118.197 139.306 117.619 139.125L117.294 140.947C117.2 141.474 117.59 141.962 118.126 141.978C120.686 142.057 127.24 142.23 127.416 141.946C128.24 140.613 124.515 140.099 121.789 139.044Z" fill="#0B4870"/>
<path d="M126.982 81.1134C127.08 85.4597 125.371 113.033 121.994 113.109C118.618 113.186 115.584 85.6355 115.485 81.2892C115.386 76.9428 117.313 73.459 120.689 73.3826C124.066 73.3062 126.883 76.767 126.982 81.1134Z" fill="#0091C8"/>
<path d="M117.331 107.381C116.996 109.774 116.941 125.102 117.48 132.889H120.553C122.204 125.335 123.968 110.696 124.296 108.357C124.3 108.327 124.302 108.298 124.306 108.268C126.142 100.142 127.784 84.2166 127.712 81.0121C127.613 76.6658 124.066 73.3062 120.689 73.3826C117.313 73.4595 115.386 76.9433 115.485 81.2892C115.547 84.0178 117.489 106.248 117.331 107.381Z" fill="#0B4870"/>
<path d="M130.763 48.139H129.124C128.553 49.4603 127.345 50.4816 125.471 50.4816C123.594 50.4816 122.387 49.4608 121.817 48.139H120.321C118.792 48.139 117.539 49.3485 117.496 50.8773C117.382 54.861 117.123 62.5384 116.666 69.4794C116.252 75.7623 114.537 81.6007 115.71 83.3136C115.71 83.3136 131.608 81.9941 134.362 78.8343C136.743 76.1024 135.285 70.6695 134.824 65.1239C134.365 59.6049 133.9 53.9742 133.637 50.7821C133.514 49.2864 132.264 48.139 130.763 48.139Z" fill="#FFBE55"/>
<path d="M125.037 44.4675C123.492 44.8108 121.962 43.837 121.618 42.292L120.803 38.6277L123.6 38.006L125.037 44.4675Z" fill="#0B4870"/>
<path d="M127.535 48.1391H122.26L123.781 42.8798L127.377 43.3248L127.535 48.1391Z" fill="#FAB9AF"/>
<path d="M127.377 43.3248L123.781 42.8798L123.073 45.3309C123.878 46.2384 125.071 47.6472 126.38 47.6472C126.795 47.6472 127.173 47.5303 127.513 47.3144L127.377 43.3248Z" fill="#FA968C"/>
<path d="M127.922 46.1201C125.553 46.6466 123.206 45.1537 122.68 42.7854L121.617 38.0083L128.973 36.3727C128.973 36.3727 129.802 40.1018 129.826 42.738C129.843 44.7155 129.129 45.8514 127.922 46.1201Z" fill="#FAB9AF"/>
<path d="M121.646 39.9311L123.029 39.6236L123.168 40.2504L121.786 40.5578L121.646 39.9311Z" fill="#41378C"/>
<path d="M123.726 41.6045C123.933 42.5364 123.655 43.3915 123.104 43.5139C122.554 43.6363 121.675 42.5493 121.468 41.6174C121.261 40.6854 121.804 40.2606 122.354 40.1382C122.904 40.0158 123.518 40.6721 123.726 41.6045Z" fill="#FAB9AF"/>
<path d="M129.919 38.2237C129.959 37.5904 129.856 36.9567 129.617 36.3685C129.026 34.9096 127.392 34.2819 125.906 34.7992C125.754 34.8521 125.593 34.8981 125.423 34.9359L122.94 35.4868C121.448 35.8181 120.507 37.2959 120.839 38.7879L120.968 39.3664L122.44 40.2201L123.04 41.2648L123.137 41.2432C123.61 41.1378 123.916 40.6831 123.842 40.21C123.72 39.4299 124.107 38.6682 124.878 38.4966L127.081 38.0065C128.422 37.7082 129.28 38.2734 129.503 39.2762L129.623 40.14L129.919 38.2237Z" fill="#0B4870"/>
<path d="M122.491 36.4817C122.323 37.8444 127.221 39.5712 128.513 39.7309C129.804 39.8906 130.988 38.9149 131.156 37.5522C131.324 36.1895 130.414 34.9552 129.122 34.7959C127.83 34.6362 122.66 35.119 122.491 36.4817Z" fill="#0B4870"/>
<path d="M116.895 53.2816C118.52 55.4962 121.305 58.4085 124.639 60.9231C134.838 68.3607 145.752 69.1127 154.653 60.6939C155.017 60.3497 155.033 59.7753 154.689 59.4108C154.394 59.0997 153.932 59.0427 153.576 59.2479L153.536 59.2718C147.731 62.6222 142.534 63.9974 135.99 61.2485C127.412 57.552 121.326 48.6587 121.966 49.5069C120.914 48.1138 118.932 47.8377 117.539 48.8898C116.158 49.9326 115.876 51.8909 116.895 53.2816Z" fill="#FAB9AF"/>
<path d="M126.646 54.6134C124.522 52.7072 121.821 48.9513 121.821 48.9513C121.821 48.9513 120.541 47.4381 117.906 48.5417C115.802 49.4231 116.228 51.9092 116.228 51.9092C116.279 52.2553 116.982 56.3563 121.82 59.9833C121.82 59.9828 127.003 54.9333 126.646 54.6134Z" fill="#FFBE55"/>
<path d="M161.548 9.35876C150.547 9.37165 141.617 18.2902 141.617 29.2922C141.617 34.5797 144.307 39.1451 147.032 43.2378C153.053 52.2816 149.632 57.1811 153.107 57.1811H161.536H170.009C173.487 57.1811 170.056 52.2811 176.079 43.2378C178.803 39.146 181.486 34.7228 181.486 29.4372C181.488 18.4329 172.548 9.37165 161.548 9.35876Z" fill="#FFBE55"/>
<path fill-rule="evenodd" clip-rule="evenodd" d="M151.831 36.7777C151.618 36.5099 151.226 36.4657 150.96 36.6774C150.692 36.8919 150.649 37.2817 150.862 37.5491C150.971 37.6857 151.096 37.8183 151.231 37.9481L157.841 58.1167C157.928 58.3777 158.169 58.5438 158.431 58.5438C158.494 58.5438 158.559 58.5337 158.624 58.5125C158.949 58.4053 159.125 58.0573 159.018 57.7301L152.912 39.0963C154.394 39.8189 156.249 40.1498 157.761 39.6688C158.088 39.5644 158.385 39.4263 158.654 39.2569C159.393 39.7411 160.298 40.0296 161.257 40.0296C162.392 40.0296 163.465 39.6661 164.278 39.0172C164.732 39.2597 165.258 39.4603 165.845 39.6076C167.578 40.0471 169.111 39.9408 170.388 39.3172L164.35 57.7311C164.245 58.0569 164.422 58.4067 164.744 58.5125C164.81 58.5346 164.876 58.5433 164.94 58.5433C165.201 58.5433 165.444 58.3781 165.53 58.1176L172.15 37.9163C172.175 37.8861 172.202 37.8582 172.229 37.8301L172.229 37.8301C172.261 37.7971 172.293 37.764 172.322 37.7267C172.532 37.4575 172.486 37.0672 172.217 36.8569C171.947 36.6452 171.558 36.6926 171.348 36.9623C170.15 38.492 168.4 38.9785 166.149 38.4083C165.895 38.3443 165.526 38.232 165.145 38.0599C165.519 37.4736 165.704 36.8067 165.673 36.1311C165.619 34.7845 165.162 33.7969 164.419 33.4191C163.985 33.1991 163.503 33.2267 163.102 33.4936C162.45 33.9285 162.131 34.918 162.23 36.2061C162.291 36.9885 162.632 37.6834 163.216 38.2537C162.202 38.8869 160.678 38.955 159.588 38.3705C160.002 37.7865 160.243 37.0502 160.291 36.1914C160.358 34.9884 159.986 34.0141 159.298 33.5875C158.859 33.3141 158.332 33.3008 157.887 33.5557C157.184 33.9524 156.796 34.9042 156.816 36.1666C156.829 36.9825 157.146 37.7488 157.668 38.3807C157.577 38.4216 157.483 38.4571 157.383 38.4884C155.533 39.077 152.831 38.0346 151.831 36.7777ZM163.792 34.5227L163.796 34.52C163.805 34.5137 163.811 34.5098 163.82 34.5098C163.829 34.5098 163.841 34.5139 163.858 34.5227C164.04 34.6147 164.392 35.08 164.436 36.1817C164.456 36.5992 164.338 37.012 164.106 37.3852C163.762 37.0571 163.508 36.6374 163.468 36.109C163.394 35.1532 163.62 34.6363 163.792 34.5227ZM158.566 34.6119C158.542 34.6119 158.521 34.6193 158.499 34.6331C158.327 34.7298 158.041 35.1582 158.057 36.1477C158.065 36.6687 158.276 37.1671 158.624 37.5873C158.877 37.2016 159.023 36.7124 159.054 36.1228C159.107 35.1849 158.823 34.7495 158.649 34.6405C158.614 34.6207 158.588 34.6119 158.566 34.6119Z" fill="#0B4870"/>
<path d="M168.566 57.181H154.522C153.707 57.181 153.047 58.6823 153.047 59.4987C153.047 60.3147 153.708 61.8164 154.522 61.8164H159.229L154.074 62.7773C153.3 63.0277 152.875 63.5049 153.126 64.2804C153.327 64.9049 153.907 65.1253 154.531 65.1253C154.681 65.1253 154.834 65.0107 154.986 64.9643L169.025 60.3657C169.714 60.1416 170.14 59.2962 170.027 58.5792C169.911 57.8612 169.293 57.181 168.566 57.181Z" fill="#0B4870"/>
<path d="M168.549 67.6105H163.856L169.005 65.2827C169.779 65.0328 170.204 63.8717 169.952 63.0953C169.701 62.3217 168.87 61.7303 168.093 61.9816L154.066 66.4521C153.374 66.6781 152.95 67.6699 153.063 68.3869C153.175 69.1049 153.796 69.9282 154.522 69.9282H155.798L158.029 73.4051H164.989L167.256 69.9282H168.549C169.365 69.9282 170.024 69.5844 170.024 68.7694C170.024 67.9538 169.365 67.6105 168.549 67.6105Z" fill="#0B4870"/>
<path d="M120.457 126.371L113.36 117.893L147.934 88.8304L177.999 93.8413L212.109 67.4946L213.485 68.7303L180.961 104.937L151.464 98.5291L120.457 126.371Z" fill="#BCD1F3"/>
<path d="M213.972 84.9852L194.191 66.0163L219.728 59.1835L213.972 84.9852Z" fill="#BCD1F3"/>
<path d="M152.93 59.6543C153.628 58.8411 153.811 55.9886 154.203 55.9886C154.485 55.9886 154.536 56.9735 154.542 57.5267C154.542 57.5911 154.581 57.6496 154.64 57.6758C154.699 57.702 154.768 57.6914 154.816 57.6486C155.607 56.9519 157.84 55.0199 158.07 55.204C158.303 55.3903 157.117 56.8313 156.713 57.3095C156.7 57.3237 156.7 57.3449 156.712 57.3601C156.724 57.3748 156.744 57.3794 156.761 57.3711C157.385 57.055 159.422 56.0572 159.47 56.4843C159.515 56.8902 157.744 58.02 157.052 58.4444C157.035 58.4549 157.028 58.4761 157.036 58.4945C157.045 58.5129 157.065 58.5221 157.084 58.5166C157.86 58.287 159.856 57.7329 159.901 58.0941C159.947 58.4618 158.017 59.2879 157.324 59.5724C157.305 59.5797 157.296 59.5995 157.3 59.6184C157.304 59.6377 157.322 59.6506 157.342 59.6487C158.025 59.5954 159.791 59.4817 159.519 59.7537C159.182 60.0901 154.931 61.48 153.979 61.48C153.027 61.48 152.93 59.6543 152.93 59.6543Z" fill="#FAB9AF"/>
<path fill-rule="evenodd" clip-rule="evenodd" d="M247.373 149.267C249.485 148.498 250.574 146.162 249.806 144.049C249.037 141.937 246.701 140.848 244.588 141.617C242.475 142.385 241.386 144.721 242.155 146.834C242.924 148.947 245.26 150.036 247.373 149.267Z" fill="#E3EAF8"/>
<rect x="245.286" y="148.294" width="3.25657" height="6.51313" rx="1" transform="rotate(-20 245.286 148.294)" fill="#E3EAF8"/>
</svg>
