<svg width="212" height="197" viewBox="0 0 212 197" fill="none" xmlns="http://www.w3.org/2000/svg">
<path d="M105.972 196.626C164.499 196.626 211.945 192.913 211.945 188.332C211.945 183.751 164.499 180.038 105.972 180.038C47.4455 180.038 0 183.751 0 188.332C0 192.913 47.4455 196.626 105.972 196.626Z" fill="#E0E9F8"/>
<path d="M159.222 168.302C159.222 168.302 157.494 172.602 157.149 173.311C156.864 173.897 156.301 174.269 155.766 174.64C155.595 174.759 155.416 175.039 155.264 175.275C155.142 175.465 155.136 175.696 155.213 175.908C156.57 179.607 160.713 181.094 160.81 180.816C160.985 180.316 160.37 179.307 159.502 178.803C158.628 178.296 158.124 177.328 158.086 176.318C158.055 175.514 158.232 174.716 158.6 174.001L160.288 170.798L159.222 168.302Z" fill="#FA968C"/>
<path d="M165.18 173.686L166.214 178.28C166.53 179.684 166.332 181.158 165.656 182.43C165.656 182.43 165.655 182.43 165.655 182.43C165.276 183.141 165.613 184.021 166.372 184.292C168.825 185.167 173.581 186.831 173.793 186.651C174.874 185.735 172.016 184.225 169.905 182.638C168.48 181.567 167.936 176.578 167.809 172.751L165.544 173.322C165.367 173.372 165.229 173.509 165.18 173.686Z" fill="#FA968C"/>
<path d="M169.526 184.13C170.542 184.465 171.655 184.573 172.675 184.699C172.792 184.713 172.904 184.759 172.998 184.831C173.976 185.589 174.47 186.352 173.897 186.838C173.666 187.034 168.079 185.055 165.899 184.272C165.443 184.109 165.244 183.581 165.472 183.153L165.888 182.375C167.027 183.101 168.24 183.707 169.526 184.13Z" fill="#0E538C"/>
<path d="M167.108 122.546C164.407 122.915 162.105 126.028 162.58 129.506C162.853 131.504 164.713 138.656 166.757 144.31C167.542 146.48 167.222 148.94 165.752 150.718C165.512 151.008 165.304 151.307 165.139 151.612C164.286 153.182 161.005 162.457 159.078 168.645C159.231 169.456 159.715 170.482 160.321 170.84C163.711 165.585 169.222 155.991 170.129 154.322C170.632 153.394 171.183 152.322 171.584 151.314C173.779 148.41 173.354 132.184 172.913 128.958C172.439 125.481 169.81 122.177 167.108 122.546Z" fill="#0E538C"/>
<path d="M167.844 95.9727C167.844 95.9727 170.184 97.4453 169.899 99.4292C169.899 99.4292 171.149 98.5439 171.432 95.4958C171.628 93.3835 167.844 95.9727 167.844 95.9727Z" fill="#0E538C"/>
<path d="M172.593 108.062C172.548 109.362 172.655 110.644 173.115 111.648C173.56 112.649 174.358 113.38 175.528 113.727C176.686 114.086 178.077 114.043 179.439 113.795C180.808 113.536 182.177 113.072 183.494 112.467L183.499 112.464C183.744 112.351 184.034 112.459 184.147 112.704C184.247 112.921 184.174 113.174 183.985 113.307C182.741 114.184 181.386 114.941 179.899 115.471C178.418 115.999 176.781 116.318 175.028 116.072C174.156 115.951 173.26 115.638 172.465 115.112C171.668 114.593 170.989 113.872 170.507 113.075C169.538 111.457 169.268 109.703 169.191 108.061C169.147 107.122 169.873 106.324 170.813 106.28C171.752 106.236 172.55 106.962 172.594 107.902C172.596 107.947 172.596 107.992 172.595 108.037L172.593 108.062Z" fill="#EFA8A0"/>
<path d="M170.463 118.342C171.4 115.52 173.283 109.546 173.122 107.593C173.019 106.342 171.974 105.384 170.718 105.384H162.574C161.223 105.384 160.119 106.455 160.079 107.805C160.011 110.164 161.097 115.532 161.709 118.342H170.463Z" fill="#FDB32A"/>
<path d="M167.759 173.743C167.887 173.666 167.959 173.52 167.954 173.37C167.782 167.38 167.418 159.744 167.286 158.281C167.271 158.114 167.251 157.949 167.226 157.787C168.51 150.706 168.704 135.482 168.832 132.816C168.999 129.311 166.888 125.356 164.165 125.226C161.441 125.095 158.486 127.914 157.611 131.126C157.034 133.246 159.265 144.524 161.683 152.698C162.192 154.418 162.272 156.228 162.016 158.004C161.839 159.232 161.785 160.498 161.873 161.465C162.002 162.905 163.615 168.769 165.128 173.79C165.172 173.935 165.288 174.05 165.436 174.083C166.219 174.255 167.036 174.184 167.759 173.743Z" fill="#0E538C"/>
<path d="M160.777 121.919C161.199 120.736 161.325 119.47 161.148 118.227C160.737 115.34 160.019 109.903 160.086 107.595C160.121 106.361 161.132 105.385 162.366 105.385H163.574C164.033 106.451 165.008 107.276 166.524 107.276C168.036 107.276 169.011 106.452 169.472 105.385H170.606C169.374 108.023 169.817 111.504 171.937 113.535C171.543 114.927 171.211 116.329 170.963 117.465C170.628 119.003 170.776 120.606 171.382 122.06C172.423 124.558 173.248 128.564 173.002 130.152C164.435 132.58 158.51 128.283 158.51 128.283L160.777 121.919Z" fill="#FDB32A"/>
<path d="M167.844 105.945L164.15 105.557L165.318 101.514L167.708 101.809L167.844 105.945Z" fill="#FAB9AF"/>
<path d="M167.708 101.809L165.318 101.514L164.953 102.776C165.488 103.379 166.176 104.682 167.045 104.682C167.321 104.682 167.573 104.604 167.798 104.461L167.708 101.809Z" fill="#FA968C"/>
<path d="M167.79 103.764C166.979 103.764 166.102 103.358 164.893 102.302C164.198 101.696 163.684 100.638 163.684 99.9238V95.9729H169.767C169.767 95.9729 170.223 98.0706 169.78 100.152C169.448 101.714 168.429 103.764 167.79 103.764Z" fill="#FAB9AF"/>
<path d="M164.716 99.1767C164.716 99.9477 164.347 100.572 163.892 100.572C163.437 100.572 162.935 99.5622 162.935 98.7912C162.935 98.0202 163.437 97.781 163.892 97.781C164.347 97.781 164.716 98.4057 164.716 99.1767Z" fill="#FAB9AF"/>
<path d="M162.934 96.4516C162.934 95.2178 163.935 94.2178 165.168 94.2183L167.221 94.2193C167.808 94.2193 168.378 94.0656 168.877 93.7827C169.601 93.3719 170.517 93.5085 171.011 94.1789C171.545 94.9033 171.776 95.8736 170.422 96.7725C169.749 97.2193 168.764 96.7244 168.108 96.9388C168.068 96.9373 168.032 96.9305 167.99 96.9305H166.18C165.551 96.9305 165.07 97.4443 165.052 98.0729C165.04 98.4706 164.715 98.7895 164.314 98.7895H164.234L163.944 97.861L162.934 99.2231V96.4516H162.934Z" fill="#0E538C"/>
<path d="M169.314 95.9035C169.11 96.8063 169.411 97.2998 166.452 98.7086C163.494 100.117 162.557 99.5156 161.633 101.032C161.633 101.032 162.037 98.5195 163.671 97.6571C165.305 96.7946 168.139 96.2312 169.048 94.2346C169.048 94.2346 169.453 95.2866 169.314 95.9035Z" fill="#0E538C"/>
<path d="M168.745 96.0722C168.745 96.0722 168.857 99.1125 171.514 100.572C171.514 100.572 170.343 98.2744 170.423 96.7722C170.502 95.2696 168.569 95.0338 168.745 96.0722Z" fill="#0E538C"/>
<path d="M154.235 176.963C154.059 176.761 154.056 176.462 154.228 176.258C154.369 176.09 154.745 175.631 155.027 175.287C155.149 175.137 155.38 175.172 155.463 175.346C156.407 177.321 157.985 178.862 160.041 179.145C160.708 179.596 161.133 180.614 160.995 181.011C160.962 181.104 160.05 181.117 159.09 180.567C154.83 178.129 154.235 176.963 154.235 176.963Z" fill="#0E538C"/>
<path d="M163.366 106.739L163.358 106.991C163.357 107.093 163.358 107.196 163.362 107.303C163.365 107.515 163.377 107.73 163.396 107.944C163.435 108.374 163.508 108.799 163.599 109.215C163.792 110.042 164.087 110.834 164.532 111.512C164.967 112.195 165.522 112.795 166.208 113.27C166.891 113.748 167.697 114.092 168.56 114.358C169.422 114.633 170.367 114.737 171.315 114.822C172.273 114.863 173.25 114.867 174.236 114.793C176.208 114.653 178.199 114.302 180.19 113.882L180.196 113.88C180.46 113.825 180.719 113.993 180.774 114.257C180.823 114.491 180.697 114.721 180.483 114.809C178.567 115.603 176.58 116.268 174.499 116.698C172.424 117.14 170.231 117.317 167.97 116.938C166.843 116.743 165.708 116.363 164.654 115.758C163.601 115.155 162.645 114.316 161.913 113.32C161.179 112.321 160.688 111.187 160.358 110.041C160.202 109.465 160.097 108.88 160.028 108.292C159.994 107.998 159.97 107.703 159.959 107.403C159.952 107.254 159.952 107.101 159.954 106.948C159.957 106.784 159.959 106.658 159.976 106.434C160.048 105.498 160.864 104.797 161.8 104.869C162.709 104.938 163.396 105.71 163.369 106.612L163.366 106.739Z" fill="#FAB9AF"/>
<path d="M183.205 114.366H181.161C180.706 114.366 180.337 113.997 180.337 113.542V108.886C180.337 108.431 180.706 108.062 181.161 108.062H183.205C183.66 108.062 184.029 108.431 184.029 108.886V113.542C184.029 113.997 183.66 114.366 183.205 114.366Z" fill="#0E538C"/>
<path d="M181.012 109.511C181.18 109.511 181.317 109.374 181.317 109.205C181.317 109.037 181.18 108.9 181.012 108.9C180.843 108.9 180.706 109.037 180.706 109.205C180.706 109.374 180.843 109.511 181.012 109.511Z" fill="#F7F7F7"/>
<path d="M189.399 79.1496C186.459 80.3901 183.467 84.5928 186.487 90.5853C189.506 96.5782 200.091 92.8103 200.532 88.3982C201.096 82.7579 196.935 75.9694 189.399 79.1496Z" fill="#FCD434"/>
<path d="M188.798 87.6622C186.952 82.3012 190.548 79.0461 190.561 79.0344C190.209 79.14 189.849 79.2666 189.482 79.4161C186.484 80.6339 183.432 84.7598 186.512 90.6426C188.224 93.9126 192.32 94.2223 195.697 93.1082C195.697 93.1082 190.647 93.0325 188.798 87.6622Z" fill="#FDBD1A"/>
<path opacity="0.4" d="M187.571 81.7899C187.571 81.7899 188.75 79.8838 191.842 79.2349C194.934 78.5855 194.824 79.6811 193.09 80.1525C191.355 80.6239 186.129 83.9777 187.571 81.7899Z" fill="#F7F7F7"/>
<path d="M190.375 85.3157C190.375 85.3157 191.732 80.2613 189.663 79.2518C187.594 78.2428 187.103 81.0737 187.103 81.0737C187.103 81.0737 184.589 81.389 184.531 83.2577C184.473 85.1259 190.375 85.3157 190.375 85.3157Z" fill="#F24D54"/>
<path d="M195.775 83.2218C195.775 83.2218 192.52 80.7386 192.944 79.1849C193.367 77.6312 194.988 77.1095 196.057 78.2645C197.605 77.0502 199.475 77.842 199.15 79.4508C198.824 81.0595 195.775 83.2218 195.775 83.2218Z" fill="#F24D54"/>
<path d="M191.51 89.2376C191.482 89.537 192.862 90.8391 195.189 89.8141C197.515 88.789 197.155 87.0082 196.922 86.7365C196.688 86.4648 195.031 88.4862 193.854 88.7234C192.677 88.9606 191.56 88.7166 191.51 89.2376Z" fill="#782D10"/>
<path d="M194.999 89.503C194.999 89.503 195.699 87.8909 197.093 88.1317C196.596 89.0177 195.33 89.3949 194.999 89.503Z" fill="#F24D54"/>
<path d="M45.2353 179.789L45.2457 182.659C45.2481 183.243 45.1687 183.824 45.01 184.386L44.7605 185.27C44.5555 185.996 45.1011 186.716 45.8551 186.713C47.8099 186.706 51.1508 186.711 52.0116 186.713C52.1523 186.713 52.2908 186.618 52.3026 186.478C52.3753 185.64 49.9552 185.079 48.1321 184.373C46.7437 183.835 46.8179 181.34 46.9889 179.883C47.0536 179.332 46.5944 178.864 46.0417 178.91C45.5849 178.947 45.2334 179.33 45.2353 179.789Z" fill="#FAB9AF"/>
<path d="M31.8009 178.984L30.8121 182.268C30.7687 182.413 30.703 182.55 30.6185 182.676L29.9174 183.717C29.4724 184.378 29.7927 185.281 30.5547 185.514C30.5547 185.514 31.9681 186.01 33.425 186.49C34.9164 186.979 36.7924 186.57 36.7924 186.176C36.7924 185.302 35.977 185.996 34.6113 185.083C34.1535 184.777 33.6811 184.456 33.2602 184.126C32.0848 183.203 33.1109 180.868 33.8308 179.552C34.0897 179.079 33.8148 178.492 33.2876 178.38L32.947 178.307C32.4472 178.2 31.9488 178.494 31.8009 178.984Z" fill="#FAB9AF"/>
<path d="M41.9015 140.583L52.7344 139.674C52.7344 139.674 53.8251 147.558 51.0875 161.83C49.8035 168.523 47.1278 181.313 47.1278 181.313C46.4645 181.603 45.7904 181.676 45.1035 181.505C45.1035 181.505 44.9004 175.863 44.7761 169.787C44.6571 163.961 44.625 157.735 44.2536 155.698C43.495 151.537 41.9015 140.583 41.9015 140.583Z" fill="#0E538C"/>
<path d="M44.1374 140.72C45.2556 146.722 47.7542 155.698 42.9418 164.13C38.1288 172.562 33.0745 181.328 33.0745 181.328C32.4235 181.354 31.8326 181.118 31.2836 180.702C31.2836 180.702 32.1273 176.879 33.3471 172.415C34.7426 167.309 36.5099 161.303 36.0063 158.172C35.0624 152.303 33.9782 144.487 34.307 140.691C34.6358 136.895 43.5493 137.564 44.1374 140.72Z" fill="#0E538C"/>
<path d="M49.8872 116.718C49.8872 116.718 51.3729 116.007 52.0253 115.635C52.6777 115.264 54.3552 114.754 54.4908 114.633C54.6259 114.512 59.4639 114.214 59.7577 113.961C60.0511 113.708 60.3359 114.554 59.0822 114.829C57.8284 115.103 56.0838 115.775 55.9879 116.266C55.8929 116.756 57.2757 116.872 57.416 117.275C57.5563 117.679 57.3768 117.589 57.1788 117.675C56.9804 117.762 55.5334 116.96 54.8971 117.188C54.2607 117.415 53.288 117.1 52.8 117.267C52.3125 117.434 49.941 118.232 49.941 118.232L49.8872 116.718Z" fill="#FAB9AF"/>
<path d="M52.5686 117.767L53.3339 117.484C53.3339 117.484 52.3796 115.244 51.9629 115.298C51.483 115.361 50.8839 115.519 50.8839 115.519L52.5686 117.767Z" fill="#F7F7F7"/>
<path d="M52.7434 118.154C52.6451 118.081 51.1164 115.147 51.1164 115.147L47.8492 115.59L49.6146 119.065L52.7434 118.154Z" fill="#DA9B5B"/>
<path d="M61.2226 122.482C61.2226 122.482 62.4707 121.359 63.0745 120.888C63.6787 120.418 64.8125 119.036 64.9792 118.956C65.146 118.875 67.3111 114.432 67.6644 114.255C68.0168 114.077 67.3304 113.478 66.5831 114.553C65.8357 115.628 64.5238 117.01 64.025 116.91C63.5261 116.809 63.9551 115.459 63.6296 115.171C63.3036 114.881 63.3192 115.085 63.1605 115.238C63.0017 115.392 63.1935 117.068 62.731 117.579C62.269 118.089 62.1868 119.13 61.8396 119.524C61.4924 119.918 59.8167 121.843 59.8167 121.843L61.2226 122.482Z" fill="#FAB9AF"/>
<path d="M41.32 94.7568C41.32 94.7568 45.0662 93.3575 46.7933 96.2095C48.52 99.0605 48.3542 104.768 46.4655 105.471C44.5777 106.172 41.7414 105.805 40.7748 104.021C39.8083 102.237 38.9353 99.6585 38.9773 97.9342C39.0194 96.2104 40.3364 95.2543 41.32 94.7568Z" fill="#FAB9AF"/>
<path d="M46.0592 105.601C46.0592 105.601 45.7569 108.29 46.0143 108.789C46.2718 109.286 41.3384 108.789 41.3384 108.789C41.3384 108.789 40.8929 104.913 40.1068 102.622C39.3203 100.334 46.0592 105.601 46.0592 105.601Z" fill="#FAB9AF"/>
<path d="M40.1069 102.622C40.1069 102.622 40.2883 105.508 41.7282 105.282C43.1676 105.057 45.0955 100.838 45.6964 100.627C46.2978 100.417 46.3035 100.064 46.3035 100.064L46.68 100.614L47.3182 100.654C47.3182 100.654 46.7362 98.9409 47.6144 98.2417C48.4931 97.5435 46.7027 92.6951 42.0853 94.3089C42.0853 94.3089 38.539 95.2868 38.6674 97.3035C38.7969 99.3207 39.3132 101.618 40.1069 102.622Z" fill="#0E538C"/>
<path d="M46.5996 109.389C46.5996 109.389 46.5836 108.438 46.1518 108.345C45.7205 108.254 41.3889 107.838 40.8598 108.046V109.155C40.8598 109.155 41.8802 109.783 46.5996 109.389Z" fill="#F7F7F7"/>
<path d="M46.208 99.3303C46.1272 98.9916 45.267 98.025 44.9377 99.0606C44.6084 100.095 45.4356 101.488 45.8972 101.368C46.3582 101.249 46.413 100.188 46.208 99.3303Z" fill="#EEA886"/>
<path d="M33.6504 144.935C33.6504 144.935 35.9472 145.612 39.8649 146.044C43.7822 146.475 53.5696 145.888 53.6314 145.425C53.6933 144.962 51.5264 128.192 51.6497 127.328C51.773 126.465 51.8386 123.387 51.8386 123.387C51.8873 124.231 52.7461 127.675 53.7831 129.552C54.1572 130.23 55.4143 132.356 56.0199 131.872C58.9522 129.532 63.4925 120.709 63.7807 120.635C63.5384 120.53 61.6289 119.651 61.3605 119.562C61.1262 119.483 59.0108 121.723 57.7287 123.111C57.157 123.73 56.7517 124.18 56.7517 124.18C56.3813 123.347 55.0331 118.101 54.6145 116.285C53.6697 112.19 53.8147 112.02 53.8147 112.02C50.9491 111.153 46.5991 109.389 46.5991 109.389L40.8594 109.156C40.8594 109.156 35.5915 110.315 33.5172 111.252C33.3202 111.341 33.3197 115.952 32.7797 117.16L34.4998 120.789C34.4998 120.789 35.4932 127.977 35.6992 131.174C35.7942 132.641 33.6504 144.935 33.6504 144.935Z" fill="#347AF0"/>
<path d="M32.5412 123.147C32.691 123.631 33.3717 124.039 33.8134 124.218C34.0964 124.332 34.4134 124.369 34.7327 124.31L34.9576 124.269V124.268L38.8909 123.538C38.8909 123.538 39.7511 113.626 33.5172 111.251C33.3528 111.306 31.1646 118.708 32.5412 123.147Z" fill="#347AF0"/>
<path d="M40.2538 95.0928C40.2538 95.0928 35.5405 95.5709 40.1697 102.726L40.2538 95.0928Z" fill="#0E538C"/>
<path d="M44.7606 185.269C44.7606 185.269 48.135 185.154 48.931 184.663C48.931 184.663 51.6251 185.138 52.3045 185.711C52.9838 186.284 53.074 187.309 50.9935 187.309C48.913 187.309 44.7606 187.007 44.7606 187.007C44.7606 187.007 43.9556 185.974 44.7606 185.269Z" fill="#0E538C"/>
<path d="M30.4588 182.665C30.4588 182.665 32.3584 183.479 33.0221 183.208C33.0221 183.208 33.3235 184.791 35.4947 185.228C37.6659 185.666 37.3192 186.842 36.0829 186.977C34.8466 187.113 30.4744 186.54 29.7809 185.62C29.0865 184.701 29.5839 183.042 30.4588 182.665Z" fill="#0E538C"/>
<path d="M69.1157 111.502V111.789L65.4294 116.304L63.4316 117.82L60.522 116.244L60.4616 116.073L69.1157 111.502Z" fill="#0E538C"/>
<path d="M65.6605 115.705L69.1157 111.502L65.0147 109.693L60.4616 116.072L63.9896 117.955L65.6605 115.705Z" fill="#0E538C"/>
<path d="M65.1432 110.115L68.5129 111.571L64.7889 116.433L61.5321 115L65.1432 110.115Z" fill="#F7F7F7"/>
<path d="M62.8326 116.855C63.0969 116.855 63.3111 116.64 63.3111 116.376C63.3111 116.112 63.0969 115.897 62.8326 115.897C62.5683 115.897 62.354 116.112 62.354 116.376C62.354 116.64 62.5683 116.855 62.8326 116.855Z" fill="#F7F7F7"/>
<path d="M66.0266 111.556L65.0189 111.066C64.8937 111.005 64.8413 110.854 64.9022 110.728C64.9632 110.602 65.1144 110.55 65.24 110.611L66.2477 111.102C66.3729 111.163 66.4253 111.314 66.3644 111.44C66.3029 111.565 66.1518 111.618 66.0266 111.556Z" fill="#2A94F4"/>
<path d="M64.6093 113.471L63.6017 112.981C63.4765 112.92 63.4241 112.769 63.485 112.643C63.5459 112.518 63.6971 112.466 63.8228 112.527L64.8304 113.017C64.9556 113.078 65.0081 113.229 64.9471 113.355C64.8857 113.48 64.7345 113.532 64.6093 113.471Z" fill="#2A94F4"/>
<path d="M64.1813 114.097L63.1737 113.606C63.0485 113.545 62.9961 113.394 63.057 113.269C63.1179 113.143 63.2691 113.091 63.3948 113.152L64.4024 113.642C64.5276 113.703 64.5801 113.854 64.5191 113.98C64.4582 114.106 64.307 114.158 64.1813 114.097Z" fill="#2A94F4"/>
<path d="M66.8405 112.763L65.8329 112.272C65.7077 112.211 65.6553 112.06 65.7162 111.935C65.7771 111.809 65.9283 111.757 66.054 111.818L67.0616 112.308C67.1868 112.369 67.2392 112.52 67.1783 112.646C67.1169 112.771 66.9657 112.824 66.8405 112.763Z" fill="#2A94F4"/>
<path d="M66.3657 113.403L65.3581 112.913C65.2329 112.852 65.1805 112.701 65.2414 112.575C65.3023 112.45 65.4535 112.398 65.5792 112.459L66.5868 112.949C66.712 113.01 66.7645 113.161 66.7035 113.287C66.6421 113.412 66.4909 113.464 66.3657 113.403Z" fill="#2A94F4"/>
<path d="M64.871 115.341L63.8634 114.85C63.7382 114.789 63.6857 114.638 63.7467 114.512C63.8076 114.387 63.9588 114.335 64.0845 114.396L65.0921 114.886C65.2173 114.947 65.2697 115.098 65.2088 115.224C65.1479 115.35 64.9967 115.402 64.871 115.341Z" fill="#2A94F4"/>
<path d="M65.3206 57.0579L64.7671 55.4722L64.2137 57.0579C63.7474 58.395 62.6388 59.5236 61.138 60.1898C62.6388 60.8566 63.7468 61.9852 64.2137 63.3217L64.7671 64.9081L65.3206 63.3217C65.7869 61.9846 66.8955 60.8566 68.3963 60.1898C66.8955 59.5236 65.7875 58.395 65.3206 57.0579Z" fill="white"/>
<path d="M102.874 64.9082C118.708 64.9082 131.544 52.0719 131.544 36.2375C131.544 20.4032 118.708 7.56689 102.874 7.56689C87.0393 7.56689 74.203 20.4032 74.203 36.2375C74.203 52.0719 87.0393 64.9082 102.874 64.9082Z" fill="#C5D6F1"/>
<path d="M121.961 6.49961L121.019 3.93774L120.078 6.49961C119.285 8.65925 117.401 10.4821 114.85 11.5591C117.401 12.636 119.285 14.4589 120.078 16.6185L121.019 19.1804L121.961 16.6185C122.754 14.4589 124.638 12.636 127.189 11.5591C124.638 10.4815 122.754 8.65868 121.961 6.49961Z" fill="white"/>
<path d="M72.9975 18.3478L72.3883 16.6399L71.7795 18.3478C71.2664 19.7876 70.0472 21.0028 68.3964 21.7208C70.0472 22.4387 71.2664 23.654 71.7795 25.0937L72.3883 26.8016L72.9975 25.0937C73.5106 23.654 74.7297 22.4387 76.3806 21.7208C74.7297 21.0024 73.5106 19.7872 72.9975 18.3478Z" fill="white"/>
<path d="M102.79 61.0592C89.3822 61.0592 78.4748 50.1512 78.4748 36.7436C78.4748 23.336 89.3828 12.428 102.79 12.428C116.198 12.428 127.106 23.336 127.106 36.7436C127.106 50.1512 116.198 61.0592 102.79 61.0592Z" fill="#E0E9F8"/>
<path d="M104.501 24.3546C107.215 24.8385 108.831 26.7438 108.831 29.7682V30.2521L105.083 30.5847V30.0404C105.083 28.3467 104.436 27.5604 103.014 27.5604C101.851 27.5604 101.043 28.2258 101.043 29.5867V30.0404C101.043 31.3711 101.819 32.4901 104.339 34.6374C107.797 37.6315 108.993 39.5671 108.993 42.168V42.7426C108.993 45.767 107.248 47.6118 104.501 48.0655V50.5757H101.431V48.0655C98.7163 47.5211 97.0036 45.6158 97.0036 42.6519V41.2909L100.752 40.9583V42.4099C100.752 44.1036 101.496 44.8899 103.014 44.8899C104.145 44.8899 105.147 44.2246 105.147 42.8636V42.3495C105.147 41.0187 104.372 39.8997 101.851 37.7524C98.3932 34.7583 97.1975 32.8228 97.1975 30.2218V29.7077C97.1975 26.7136 98.781 24.8687 101.463 24.3848V22.2375H104.533V24.3546H104.501Z" fill="#FDBD1A"/>
<path d="M43.6433 91.0941C43.6433 91.0941 41.9069 55.0824 72.5839 42.4629" stroke="#C5D6F1" stroke-width="0.8" stroke-dasharray="4.8"/>
<path d="M169.974 89.6188C169.974 89.6188 171.465 50.8576 130.818 36.9197" stroke="#C5D6F1" stroke-width="0.8" stroke-dasharray="4.8"/>
<path d="M128.05 51.0072L127.552 49.6653L127.054 51.0072C126.634 52.1385 125.637 53.0933 124.286 53.6574C125.637 54.2215 126.634 55.1763 127.054 56.3076L127.552 57.6495L128.05 56.3076C128.47 55.1763 129.468 54.2215 130.818 53.6574C129.468 53.093 128.47 52.1382 128.05 51.0072Z" fill="white"/>
<path d="M16.3271 8.62977L15.8287 7.28784L15.3306 8.62977C14.9108 9.76101 13.9133 10.7158 12.5626 11.28C13.9133 11.8441 14.9108 12.7989 15.3306 13.9301L15.8287 15.2721L16.3271 13.9301C16.747 12.7989 17.7444 11.8441 19.0951 11.28C17.7444 10.7155 16.747 9.76071 16.3271 8.62977Z" fill="white"/>
<path d="M41.4523 29.5675L40.9539 28.2256L40.4558 29.5675C40.036 30.6988 39.0385 31.6536 37.6878 32.2177C39.0385 32.7818 40.036 33.7366 40.4558 34.8679L40.9539 36.2098L41.4523 34.8679C41.8722 33.7366 42.8696 32.7818 44.2203 32.2177C42.8696 31.6533 41.8722 30.6985 41.4523 29.5675Z" fill="white"/>
<path d="M175.422 45.1702L175.039 44.1379L174.656 45.1702C174.333 46.0404 173.565 46.7749 172.526 47.2088C173.565 47.6427 174.333 48.3772 174.656 49.2474L175.039 50.2797L175.422 49.2474C175.745 48.3772 176.512 47.6427 177.551 47.2088C176.512 46.7746 175.745 46.0401 175.422 45.1702Z" fill="white"/>
</svg>
