<svg width="166" height="189" viewBox="0 0 166 189" fill="none" xmlns="http://www.w3.org/2000/svg">
<path d="M107.368 99.7875L100.398 50.8112L81.5933 48.2305L71.8128 99.4335L107.368 99.7875Z" fill="#FAB9AF"/>
<path d="M92.833 175.676L92.8533 181.196C92.8574 182.319 92.7047 183.437 92.4 184.518L91.9203 186.219C91.5264 187.614 92.5756 189 94.0261 188.995C97.7858 188.981 104.212 188.991 105.869 188.994C106.139 188.995 106.405 188.811 106.429 188.541C106.568 186.929 101.913 185.85 98.4067 184.493C95.7361 183.459 95.8786 178.659 96.2076 175.856C96.3319 174.796 95.4489 173.895 94.3862 173.984C93.5059 174.057 92.8303 174.794 92.833 175.676Z" fill="#0B4870"/>
<path d="M66.9917 174.127L65.0892 180.443C65.0054 180.722 64.8798 180.987 64.717 181.229L63.3685 183.231C62.5125 184.502 63.1287 186.239 64.5947 186.686C64.5947 186.686 67.3133 187.643 70.1163 188.563C72.9855 189.506 76.5939 188.718 76.5939 187.961C76.5939 186.279 75.0258 187.614 72.3991 185.858C71.5188 185.269 70.6101 184.653 69.8001 184.017C67.5396 182.243 69.5137 177.75 70.8973 175.219C71.3952 174.309 70.8669 173.18 69.8521 172.963L69.1968 172.824C68.2348 172.618 67.2754 173.186 66.9917 174.127Z" fill="#0B4870"/>
<path d="M86.4203 100.261L107.258 98.512C107.258 98.512 109.356 113.678 104.09 141.132C101.62 154.006 96.4731 178.607 96.4731 178.607C95.1976 179.165 93.9005 179.306 92.5797 178.976C92.5797 178.976 92.1885 168.124 91.95 156.438C91.721 145.23 91.6589 133.254 90.9448 129.335C89.4855 121.331 86.4203 100.261 86.4203 100.261Z" fill="#6B7FFE"/>
<path opacity="0.07" d="M86.4203 100.261L107.258 98.512C107.258 98.512 109.356 113.678 104.09 141.132C101.62 154.006 96.4731 178.607 96.4731 178.607C95.1976 179.165 93.9005 179.306 92.5797 178.976C92.5797 178.976 92.1885 168.124 91.95 156.438C91.721 145.23 91.6589 133.254 90.9448 129.335C89.4855 121.331 86.4203 100.261 86.4203 100.261Z" fill="black"/>
<path d="M90.7219 100.525C92.873 112.071 97.6792 129.336 88.4215 145.555C79.1639 161.774 69.4415 178.636 69.4415 178.636C68.1889 178.688 67.0526 178.233 65.9966 177.432C65.9966 177.432 67.6201 170.079 69.9664 161.493C72.6505 151.672 76.0508 140.118 75.082 134.095C73.2667 122.806 71.1811 107.771 71.8135 100.469C72.4452 93.1688 89.5903 94.4544 90.7219 100.525Z" fill="#6B7FFE"/>
<path opacity="0.07" d="M90.7219 100.525C92.873 112.071 97.6792 129.336 88.4215 145.555C79.1639 161.774 69.4415 178.636 69.4415 178.636C68.1889 178.688 67.0526 178.233 65.9966 177.432C65.9966 177.432 67.6201 170.079 69.9664 161.493C72.6505 151.672 76.0508 140.118 75.082 134.095C73.2667 122.806 71.1811 107.771 71.8135 100.469C72.4452 93.1688 89.5903 94.4544 90.7219 100.525Z" fill="black"/>
<path d="M108.088 98.5404L100.398 50.812L81.594 48.2312L71.4878 98.6296C71.298 99.5768 71.9114 100.496 72.8606 100.677C76.3615 101.34 84.8064 102.726 94.2573 102.726C101.312 102.726 105.277 101.354 107.081 100.486C107.812 100.133 108.217 99.341 108.088 98.5404Z" fill="white"/>
<path d="M87.4682 51.2031C87.4682 54.6412 86.8433 58.0469 85.6691 61.2782C83.3714 67.6004 79.9252 79.5543 81.9729 90.0868C84.9219 105.253 88.7133 111.384 83.7984 114.918C78.8835 118.453 69.4569 112.555 69.1854 110.589C68.9131 108.623 71.0196 84.4719 73.4071 74.0091C75.7947 63.5462 82.481 48.5042 82.481 48.5042L85.3137 48.8068C86.5386 48.9379 87.4682 49.9715 87.4682 51.2031Z" fill="#FFBE55"/>
<path d="M95.2963 50.1113C95.2963 50.1113 98.5574 57.1598 97.4203 67.2862C96.2826 77.4126 93.6472 108.249 102.862 112.905C105.78 114.38 112.444 107.85 112.444 105.428C112.444 103.005 110.22 94.8962 108.113 87.5235C106.006 80.1508 100.927 50.8835 100.927 50.8835L95.2963 50.1113Z" fill="#FFBE55"/>
<path d="M92.671 28.2668C88.4742 28.2668 86.9082 31.2542 86.8285 36.7806C86.7987 38.8499 87.7297 40.901 88.4789 42.2103C89.0356 43.1832 89.1883 44.335 88.8708 45.4099L87.9493 48.5291C87.323 51.4227 88.6972 53.0096 90.7253 53.5859C91.7299 53.871 92.9345 53.6501 93.8114 53.0833C94.8545 52.409 94.9403 50.9592 94.7464 49.7317L94.5086 48.8426C94.1877 47.6448 94.8822 46.353 96.0942 46.0882C99.3255 45.3815 99.7883 42.013 100.654 36.7813C101.556 31.3279 96.8677 28.2668 92.671 28.2668Z" fill="#FAB9AF"/>
<path d="M92.5162 25.1949C89.6058 25.1949 84.7983 26.8386 85.4056 31.0387L85.942 34.0093C86.1562 35.1956 87.1459 36.084 88.3471 36.1867C88.4586 36.5975 88.8309 36.8826 89.2565 36.8826C89.7767 36.8826 90.1983 36.461 90.1983 35.9408C90.1983 34.6011 91.1387 33.458 92.4459 33.1641C94.0491 32.804 95.7617 32.7182 97.5541 33.1999C100.842 34.0829 104.744 28.6397 104.749 28.585C104.749 28.585 103.084 29.8591 99.7916 28.6498C96.4995 27.4405 97.8723 25.0321 92.5162 25.1949Z" fill="#6B7FFE"/>
<path d="M89.1417 36.8826C89.1417 38.1642 88.6647 39.2026 87.4311 39.2026C86.1974 39.2026 85.4056 37.4406 85.4056 36.159C85.4056 34.8774 86.1974 34.5626 87.4311 34.5626C88.6647 34.5626 89.1417 35.601 89.1417 36.8826Z" fill="#FAB9AF"/>
<path d="M82.7836 34.9254C82.7836 34.9254 82.3384 35.9766 81.2764 37.4554C80.7474 38.1979 80.0603 39.0431 79.2172 39.9484C78.3856 40.8665 77.4458 41.8941 76.4054 42.9933C75.3731 44.0999 74.234 45.2734 73.0889 46.5597C71.9323 47.8332 70.7946 49.2452 69.7326 50.7558C68.6962 52.2793 67.6903 53.8851 66.9356 55.5262C66.5674 56.3443 66.2486 57.1712 66.0648 57.9394C65.8736 58.7021 65.8196 59.4203 65.9169 59.8553C65.9655 60.0702 66.0371 60.2107 66.102 60.2911C66.177 60.3647 66.2506 60.3945 66.3404 60.4553C66.5249 60.5634 66.9269 60.7843 67.5849 60.9133L67.9538 61.0052C68.0098 61.0174 68.0889 61.0424 68.126 61.0444L68.2328 61.0491L68.6577 61.0815L69.1543 61.1032L69.6292 61.0714C70.2474 60.9856 70.7865 60.8018 71.25 60.5411C72.1728 60.0141 72.8471 59.3547 73.6733 58.6899C74.4806 58.0056 75.3731 57.2212 76.1879 56.3321C77.8174 54.5513 79.2138 52.5421 80.2583 51.0294C80.7988 50.2342 81.2237 49.61 81.5135 49.1844C81.8216 48.7378 82.0094 48.4892 82.0094 48.4892L82.9546 48.5196C82.9546 48.5196 83.116 48.7831 83.3741 49.2972C83.6112 49.81 83.9477 50.5795 84.2091 51.5983C84.7287 53.6183 85.059 56.724 83.8011 60.4059C83.162 62.2233 82.1222 64.2143 80.3394 65.9336C79.4435 66.7822 78.3646 67.5483 77.1256 68.1239C75.8913 68.7056 74.4982 69.0738 73.0828 69.2217C70.2379 69.5062 67.3714 68.8684 65.0926 67.7983C64.4907 67.5287 63.7908 67.1909 63.1368 66.7646C62.4713 66.3093 61.7998 65.7897 61.2114 65.0682C60.6229 64.3663 60.1466 63.515 59.8521 62.6307C59.5683 61.745 59.4683 60.8633 59.4791 60.054C59.519 58.4305 59.9467 57.1172 60.427 55.9552C60.9155 54.7911 61.5039 53.7852 62.114 52.838C63.3354 50.9524 64.6569 49.3188 65.9918 47.8143C67.3113 46.3016 68.6199 44.9072 69.8481 43.5824C71.0892 42.2704 72.2796 41.0563 73.4321 39.9943C74.5793 38.9269 75.6818 38.0081 76.6824 37.223C77.6708 36.4245 78.6031 35.8097 79.4179 35.3604C81.0433 34.4565 82.179 34.1984 82.179 34.1984L82.7836 34.9254Z" fill="#FFBE55"/>
<path d="M115.44 102.764C115.44 102.764 114.809 101.932 114.29 100.422C114.015 99.6687 113.831 98.7384 113.607 97.6737C113.4 96.6069 113.187 95.4023 113.008 94.0822C112.816 92.7641 112.631 91.3332 112.356 89.8328C112.08 88.3329 111.706 86.7649 111.326 85.1516C110.933 83.5403 110.484 81.8871 109.997 80.2427C109.766 79.4124 109.482 78.6105 109.237 77.7924C108.964 76.9931 108.713 76.2331 108.39 75.3717C108.091 74.5576 107.768 73.7409 107.447 72.9396C107.1 72.1471 106.755 71.3634 106.381 70.6088C105.646 69.0935 104.869 67.6693 104.226 66.2891C103.568 64.9116 103.013 63.5827 102.483 62.3112C101.936 61.0526 101.413 59.8581 100.885 58.7522C100.356 57.6496 99.8524 56.6119 99.3626 55.6877C98.8735 54.7649 98.435 53.9197 98.0452 53.2252C97.654 52.503 97.3466 51.9362 97.1365 51.549C96.921 51.1518 96.8123 50.9214 96.8123 50.9214L97.2798 50.2587C97.2798 50.2587 97.5318 50.2911 97.9918 50.387C98.2283 50.4269 98.5046 50.4999 98.8282 50.5944C99.1545 50.6856 99.5356 50.789 99.9389 50.9451C100.759 51.2383 101.731 51.6659 102.782 52.28C103.829 52.8948 104.975 53.6819 106.09 54.6932C107.207 55.6999 108.332 56.9004 109.338 58.2894C110.353 59.669 111.273 61.2255 111.945 62.9206C112.646 64.6069 113.079 66.4276 113.46 68.2442C113.814 70.0373 114.174 71.8587 114.533 73.6807C114.701 74.5367 114.869 75.5123 115.029 76.4378C115.158 77.358 115.284 78.2801 115.372 79.1787C115.571 80.9818 115.702 82.739 115.835 84.4341C115.984 86.1258 116.073 87.7607 116.218 89.3004C116.363 90.8401 116.552 92.2858 116.689 93.6255C116.84 94.9632 116.916 96.1961 116.955 97.2913C116.98 98.3884 117.004 99.3437 116.893 100.144C116.706 101.741 116.246 102.686 116.246 102.686L115.44 102.764Z" fill="#FFBE55"/>
<path d="M87.929 34.4376C86.8014 35.0112 85.7333 35.7104 85.2631 35.8915C85.0672 35.9671 84.4814 36.0097 84.3125 36.034C83.8166 36.105 83.0377 36.1367 82.6546 36.4597L81.021 37.7899C80.2421 38.4459 79.3348 38.5668 78.6788 37.7885C77.9681 36.9454 78.3653 35.9557 79.2848 35.3476L80.4123 34.3978C81.1487 33.9107 81.5946 33.1391 82.0729 32.3973C83.0458 30.8881 84.88 29.9159 86.4237 29.2734C87.3925 28.8701 88.6816 29.4504 90.355 30.3165C91.1772 30.7421 92.325 31.6474 91.184 31.89C90.228 32.0933 87.6094 30.9489 86.0272 33.2844C85.9495 33.3992 85.7711 33.708 85.8765 33.8411C86.1913 34.2383 87.1115 33.5843 87.6878 33.4168C88.4965 33.181 89.0829 33.3931 89.2329 33.6985C89.3936 34.0214 88.7343 34.0275 87.929 34.4376Z" fill="#FAB9AF"/>
<path d="M113.978 108.289C114.003 107.024 113.889 105.753 113.951 105.253C113.977 105.044 114.215 104.508 114.274 104.348C114.444 103.877 114.784 103.175 114.679 102.685L114.275 100.617C114.063 99.6214 114.384 98.7634 115.38 98.5519C116.458 98.3222 117.144 99.1383 117.248 100.236L117.554 101.679C117.637 102.557 118.108 103.314 118.537 104.086C119.409 105.655 119.403 107.73 119.243 109.395C119.142 110.44 118.023 111.304 116.471 112.372C115.709 112.897 114.37 113.482 114.692 112.362C114.963 111.423 117.206 109.653 115.89 107.156C115.825 107.033 115.637 106.731 115.47 106.761C114.971 106.852 115.115 107.972 114.991 108.559C114.818 109.383 114.355 109.801 114.015 109.79C113.655 109.777 113.961 109.192 113.978 108.289Z" fill="#FAB9AF"/>
<path d="M88.6315 42.5069C88.6315 42.5069 91.7663 46.8158 95.6665 46.2321C95.6665 46.2321 94.8564 46.6192 94.6598 47.2489C94.6592 47.2489 90.9549 46.9753 88.6315 42.5069Z" fill="#E8948B"/>
<path fill-rule="evenodd" clip-rule="evenodd" d="M109.997 5.28572C110.569 2.95908 109.61 1.41056 107.308 0.845092L104.535 0.163629C102.208 -0.408123 100.666 0.525626 100.094 2.85275L99.4496 5.47711C99.3887 5.72505 99.4762 5.90387 99.7483 5.97057L102.323 6.60322C102.571 6.66411 102.756 6.55198 102.817 6.30453L103.291 4.37324C103.449 3.72947 103.855 3.46172 104.524 3.62604L105.712 3.91796C106.331 4.0702 106.618 4.5076 106.46 5.15136L105.621 8.56834L101.433 11.084C101.217 11.2149 101.101 11.3696 101.04 11.6175L100.505 13.7958C100.425 14.1177 100.556 14.3332 100.878 14.4125L103.205 14.9842C103.527 15.0635 103.743 14.933 103.822 14.6107L104.089 13.5218C104.156 13.2492 104.273 13.0945 104.489 12.9635L108.375 10.7152C108.616 10.5905 108.733 10.4354 108.799 10.1633L109.997 5.28572ZM100.324 16.6656C100.002 16.5869 99.7866 16.7174 99.7073 17.0392L99.1481 19.3171C99.0684 19.6389 99.1993 19.8545 99.5207 19.9338L101.848 20.5055C102.17 20.5848 102.386 20.4538 102.465 20.1319L103.024 17.8541C103.104 17.5322 102.973 17.3167 102.651 17.2374L100.324 16.6656Z" fill="#FFBE55"/>
<path d="M129.657 122.42L134.859 85.8663L148.894 83.9402L156.194 122.156L129.657 122.42Z" fill="#FAB9AF"/>
<path d="M140.505 179.06L140.49 183.18C140.487 184.018 140.601 184.852 140.828 185.659L141.187 186.928C141.48 187.97 140.697 189.004 139.615 189C136.809 188.99 132.013 188.997 130.776 188.999C130.574 189 130.376 188.863 130.358 188.662C130.254 187.459 133.728 186.653 136.345 185.64C138.339 184.869 138.232 181.286 137.987 179.194C137.894 178.403 138.553 177.73 139.346 177.796C140.003 177.851 140.507 178.401 140.505 179.06Z" fill="#0B4870"/>
<path d="M159.792 177.904L161.212 182.617C161.274 182.826 161.368 183.023 161.49 183.204L162.496 184.698C163.135 185.647 162.675 186.943 161.581 187.277C161.581 187.277 159.552 187.991 157.46 188.678C155.319 189.382 152.625 188.794 152.625 188.229C152.625 186.973 153.796 187.97 155.756 186.659C156.413 186.22 157.091 185.76 157.696 185.285C159.383 183.961 157.91 180.608 156.877 178.719C156.505 178.04 156.9 177.196 157.657 177.035L158.146 176.931C158.864 176.777 159.58 177.201 159.792 177.904Z" fill="#0B4870"/>
<path d="M145.291 122.773L129.739 121.468C129.739 121.468 128.173 132.787 132.104 153.277C133.947 162.886 137.788 181.247 137.788 181.247C138.74 181.664 139.709 181.769 140.694 181.523C140.694 181.523 140.986 173.423 141.164 164.701C141.335 156.336 141.382 147.397 141.915 144.473C143.004 138.499 145.291 122.773 145.291 122.773Z" fill="#6B7FFE"/>
<path opacity="0.07" d="M145.291 122.773L129.739 121.468C129.739 121.468 128.173 132.787 132.104 153.277C133.947 162.886 137.788 181.247 137.788 181.247C138.74 181.664 139.709 181.769 140.694 181.523C140.694 181.523 140.986 173.423 141.164 164.701C141.335 156.336 141.382 147.397 141.915 144.473C143.004 138.499 145.291 122.773 145.291 122.773Z" fill="black"/>
<path d="M142.081 122.971C140.475 131.588 136.888 144.474 143.798 156.579C150.707 168.684 157.964 181.269 157.964 181.269C158.898 181.307 159.747 180.968 160.535 180.37C160.535 180.37 159.323 174.882 157.572 168.474C155.569 161.144 153.031 152.521 153.754 148.025C155.109 139.6 156.665 128.378 156.193 122.929C155.722 117.48 142.926 118.44 142.081 122.971Z" fill="#6B7FFE"/>
<path opacity="0.07" d="M142.081 122.971C140.475 131.588 136.888 144.474 143.798 156.579C150.707 168.684 157.964 181.269 157.964 181.269C158.898 181.307 159.747 180.968 160.535 180.37C160.535 180.37 159.323 174.882 157.572 168.474C155.569 161.144 153.031 152.521 153.754 148.025C155.109 139.6 156.665 128.378 156.193 122.929C155.722 117.48 142.926 118.44 142.081 122.971Z" fill="black"/>
<path d="M129.12 121.489L134.859 85.8669L148.894 83.9407L156.436 121.556C156.578 122.263 156.12 122.949 155.412 123.084C152.799 123.579 146.496 124.613 139.442 124.613C134.177 124.613 131.217 123.589 129.871 122.941C129.326 122.678 129.023 122.087 129.12 121.489Z" fill="white"/>
<path d="M144.509 86.1589C144.509 88.7249 144.976 91.2667 145.852 93.6784C147.567 98.397 150.139 107.319 148.611 115.18C146.41 126.499 143.58 131.075 147.248 133.713C150.917 136.351 157.952 131.949 158.155 130.482C158.358 129.014 156.786 110.989 155.004 103.18C153.222 95.3711 148.232 84.1445 148.232 84.1445L146.117 84.3704C145.203 84.4682 144.509 85.2397 144.509 86.1589Z" fill="#FFBE55"/>
<path d="M138.667 85.344C138.667 85.344 136.233 90.6046 137.082 98.1625C137.931 105.72 139.898 128.735 133.02 132.211C130.842 133.311 125.868 128.437 125.868 126.63C125.868 124.822 127.528 118.769 129.101 113.267C130.674 107.764 134.465 85.9203 134.465 85.9203L138.667 85.344Z" fill="#FFBE55"/>
<path d="M140.626 69.0402C143.758 69.0402 144.927 71.2699 144.987 75.3945C145.009 76.939 144.314 78.4698 143.755 79.447C143.339 80.1731 143.226 81.0328 143.463 81.8351L144.15 84.1631C144.618 86.3227 143.592 87.5071 142.078 87.9372C141.329 88.15 140.43 87.9851 139.775 87.5621C138.997 87.0589 138.933 85.9768 139.077 85.0606L139.255 84.397C139.494 83.503 138.976 82.539 138.071 82.3413C135.66 81.8139 135.314 79.2998 134.668 75.395C133.995 71.3249 137.494 69.0402 140.626 69.0402Z" fill="#FAB9AF"/>
<path d="M140.742 66.7475C142.914 66.7475 146.502 67.9743 146.049 71.1091L145.648 73.3262C145.489 74.2116 144.75 74.8747 143.853 74.9513C143.77 75.2579 143.492 75.4707 143.175 75.4707C142.786 75.4707 142.472 75.156 142.472 74.7678C142.472 73.7679 141.77 72.9147 140.794 72.6954C139.598 72.4266 138.319 72.3626 136.982 72.7221C134.528 73.3811 131.616 69.3186 131.612 69.2777C131.612 69.2777 132.854 70.2287 135.312 69.3261C137.769 68.4236 136.744 66.626 140.742 66.7475Z" fill="#6B7FFE"/>
<path d="M143.26 75.4707C143.26 76.4272 143.616 77.2022 144.537 77.2022C145.458 77.2022 146.049 75.8872 146.049 74.9306C146.049 73.9741 145.458 73.7391 144.537 73.7391C143.616 73.7391 143.26 74.5141 143.26 75.4707Z" fill="#FAB9AF"/>
<path d="M148.006 74.0099C148.006 74.0099 148.338 74.7945 149.131 75.8982C149.525 76.4524 150.038 77.0832 150.668 77.7588C151.288 78.4441 151.99 79.211 152.766 80.0314C153.537 80.8573 154.387 81.7332 155.241 82.6932C156.105 83.6437 156.954 84.6976 157.746 85.825C158.52 86.962 159.271 88.1606 159.834 89.3854C160.109 89.996 160.347 90.6132 160.484 91.1865C160.627 91.7558 160.667 92.2918 160.594 92.6165C160.558 92.7768 160.505 92.8817 160.456 92.9417C160.4 92.9967 160.345 93.0189 160.278 93.0642C160.14 93.1449 159.84 93.3098 159.349 93.4061L159.074 93.4747C159.032 93.4838 158.973 93.5024 158.945 93.5039L158.866 93.5075L158.549 93.5317L158.178 93.5478L157.824 93.5241C157.362 93.4601 156.96 93.3229 156.614 93.1283C155.925 92.735 155.422 92.2428 154.805 91.7467C154.203 91.2359 153.537 90.6505 152.928 89.9869C151.712 88.6578 150.67 87.1582 149.89 86.0292C149.487 85.4357 149.17 84.9698 148.954 84.6522C148.724 84.3189 148.584 84.1333 148.584 84.1333L147.878 84.156C147.878 84.156 147.758 84.3527 147.565 84.7364C147.388 85.1191 147.137 85.6934 146.942 86.4538C146.554 87.9614 146.307 90.2794 147.246 93.0274C147.723 94.3838 148.499 95.8698 149.83 97.153C150.499 97.7863 151.304 98.3581 152.229 98.7877C153.15 99.2219 154.19 99.4967 155.246 99.6071C157.369 99.8194 159.509 99.3434 161.209 98.5447C161.659 98.3435 162.181 98.0914 162.669 97.7732C163.166 97.4334 163.667 97.0456 164.106 96.5071C164.545 95.9832 164.901 95.3479 165.121 94.6879C165.333 94.0268 165.407 93.3688 165.399 92.7647C165.369 91.5531 165.05 90.5728 164.692 89.7056C164.327 88.8368 163.888 88.086 163.433 87.379C162.521 85.9717 161.535 84.7525 160.538 83.6296C159.554 82.5006 158.577 81.4599 157.66 80.4711C156.734 79.4919 155.845 78.5858 154.985 77.7931C154.129 76.9965 153.306 76.3107 152.559 75.7248C151.822 75.1288 151.126 74.6699 150.518 74.3346C149.305 73.66 148.457 73.4673 148.457 73.4673L148.006 74.0099Z" fill="#FFBE55"/>
<path d="M123.632 124.642C123.632 124.642 124.103 124.02 124.49 122.893C124.696 122.331 124.833 121.637 125 120.842C125.155 120.046 125.314 119.147 125.448 118.162C125.591 117.178 125.729 116.11 125.934 114.99C126.14 113.871 126.419 112.7 126.703 111.496C126.996 110.294 127.331 109.06 127.695 107.833C127.867 107.213 128.079 106.614 128.262 106.004C128.466 105.407 128.653 104.84 128.894 104.197C129.118 103.59 129.359 102.98 129.598 102.382C129.857 101.79 130.115 101.206 130.393 100.642C130.943 99.5113 131.522 98.4484 132.002 97.4183C132.493 96.3902 132.908 95.3983 133.303 94.4494C133.711 93.51 134.102 92.6185 134.495 91.7931C134.891 90.9702 135.266 90.1957 135.632 89.5059C135.997 88.8171 136.324 88.1863 136.615 87.668C136.907 87.129 137.137 86.7059 137.293 86.417C137.454 86.1205 137.535 85.9486 137.535 85.9486L137.186 85.4539C137.186 85.4539 136.998 85.4781 136.655 85.5497C136.478 85.5795 136.272 85.6339 136.031 85.7045C135.787 85.7726 135.503 85.8497 135.202 85.9662C134.59 86.1851 133.864 86.5042 133.08 86.9626C132.298 87.4214 131.443 88.0089 130.611 88.7637C129.777 89.515 128.937 90.411 128.187 91.4477C127.429 92.4773 126.742 93.6391 126.241 94.9042C125.718 96.1628 125.395 97.5216 125.11 98.8775C124.846 100.216 124.578 101.575 124.309 102.935C124.184 103.574 124.058 104.302 123.939 104.993C123.843 105.68 123.749 106.368 123.683 107.038C123.534 108.384 123.437 109.696 123.338 110.961C123.226 112.223 123.16 113.444 123.052 114.593C122.943 115.742 122.803 116.821 122.7 117.821C122.587 118.819 122.53 119.74 122.502 120.557C122.483 121.376 122.465 122.089 122.548 122.686C122.687 123.878 123.031 124.583 123.031 124.583L123.632 124.642Z" fill="#FFBE55"/>
<path d="M144.165 73.6459C145.007 74.074 145.804 74.5958 146.155 74.731C146.301 74.7875 146.739 74.8192 146.865 74.8374C147.235 74.8903 147.816 74.914 148.102 75.155L149.321 76.1479C149.903 76.6375 150.58 76.7277 151.069 76.1469C151.6 75.5176 151.303 74.7789 150.617 74.3251L149.776 73.6161C149.226 73.2526 148.893 72.6767 148.536 72.1231C147.81 70.9967 146.441 70.2711 145.289 69.7915C144.566 69.4905 143.604 69.9237 142.355 70.5701C141.741 70.8877 140.884 71.5634 141.736 71.7444C142.45 71.8962 144.404 71.042 145.585 72.7852C145.643 72.8709 145.776 73.1013 145.697 73.2006C145.462 73.4971 144.776 73.009 144.345 72.884C143.742 72.708 143.304 72.8663 143.192 73.0942C143.072 73.3353 143.564 73.3398 144.165 73.6459Z" fill="#FAB9AF"/>
<path d="M124.723 128.765C124.705 127.821 124.79 126.872 124.744 126.499C124.724 126.343 124.547 125.943 124.503 125.824C124.375 125.472 124.122 124.948 124.201 124.582L124.502 123.039C124.66 122.296 124.421 121.656 123.678 121.498C122.873 121.326 122.361 121.935 122.283 122.755L122.055 123.831C121.992 124.487 121.642 125.052 121.321 125.628C120.67 126.799 120.674 128.348 120.794 129.591C120.87 130.37 121.705 131.015 122.863 131.812C123.432 132.204 124.431 132.641 124.19 131.805C123.988 131.104 122.315 129.783 123.296 127.92C123.345 127.828 123.486 127.602 123.61 127.625C123.983 127.692 123.875 128.528 123.968 128.966C124.097 129.582 124.443 129.893 124.696 129.885C124.964 129.876 124.737 129.439 124.723 128.765Z" fill="#FAB9AF"/>
<path d="M143.641 79.6684C143.641 79.6684 141.301 82.8844 138.391 82.4487C138.391 82.4487 138.995 82.7376 139.142 83.2076C139.142 83.2076 141.907 83.0034 143.641 79.6684Z" fill="#E8948B"/>
<path fill-rule="evenodd" clip-rule="evenodd" d="M127.695 51.8882C127.268 50.1517 127.984 48.996 129.702 48.5739L131.771 48.0653C133.508 47.6386 134.659 48.3355 135.086 50.0723L135.567 52.031C135.612 52.2161 135.547 52.3496 135.344 52.3993L133.422 52.8715C133.237 52.917 133.099 52.8333 133.054 52.6486L132.7 51.2072C132.582 50.7267 132.279 50.5268 131.779 50.6495L130.893 50.8674C130.431 50.981 130.217 51.3074 130.335 51.7879L130.961 54.3382L134.087 56.2157C134.248 56.3135 134.335 56.4289 134.38 56.614L134.779 58.2397C134.839 58.48 134.741 58.6408 134.501 58.7L132.764 59.1267C132.524 59.1859 132.363 59.0885 132.304 58.8479L132.104 58.0352C132.054 57.8317 131.967 57.7163 131.806 57.6186L128.906 55.9405C128.726 55.8474 128.639 55.7316 128.589 55.5286L127.695 51.8882ZM134.915 60.3816C135.155 60.3228 135.316 60.4202 135.375 60.6605L135.792 62.3605C135.852 62.6008 135.754 62.7616 135.514 62.8208L133.777 63.2475C133.536 63.3067 133.376 63.2089 133.316 62.9687L132.899 61.2686C132.84 61.0284 132.937 60.8675 133.178 60.8084L134.915 60.3816Z" fill="#FFBE55"/>
<path d="M42.1356 107.848L36.003 64.7557L19.4579 62.485L10.8525 107.536L42.1356 107.848Z" fill="#FAB9AF"/>
<path d="M29.3472 174.618L29.365 179.475C29.3686 180.463 29.2343 181.447 28.9662 182.398L28.5441 183.894C28.1976 185.122 29.1207 186.342 30.3969 186.337C33.7049 186.325 39.359 186.334 40.8165 186.336C41.0549 186.337 41.2885 186.176 41.3093 185.938C41.4324 184.52 37.3362 183.57 34.2512 182.376C31.9014 181.467 32.0268 177.243 32.3163 174.776C32.4257 173.844 31.6488 173.051 30.7138 173.129C29.9392 173.194 29.3448 173.842 29.3472 174.618Z" fill="#0B4870"/>
<path d="M6.61059 173.256L4.9367 178.812C4.863 179.058 4.75243 179.291 4.60918 179.504L3.42271 181.266C2.66958 182.384 3.21169 183.912 4.50159 184.305C4.50159 184.305 6.89354 185.147 9.35979 185.957C11.8843 186.787 15.0591 186.093 15.0591 185.428C15.0591 183.948 13.6794 185.122 11.3683 183.577C10.5938 183.059 9.79431 182.517 9.0816 181.957C7.09267 180.396 8.82957 176.443 10.0469 174.216C10.485 173.416 10.0202 172.422 9.12737 172.232L8.55078 172.109C7.70433 171.928 6.86025 172.427 6.61059 173.256Z" fill="#0B4870"/>
<path d="M23.705 108.264L42.0387 106.725C42.0387 106.725 43.885 120.069 39.2515 144.224C37.0783 155.552 32.55 177.198 32.55 177.198C31.4277 177.688 30.2864 177.812 29.1243 177.522C29.1243 177.522 28.7802 167.974 28.5703 157.692C28.3688 147.83 28.3141 137.293 27.6858 133.845C26.4019 126.803 23.705 108.264 23.705 108.264Z" fill="#6B7FFE"/>
<path opacity="0.07" d="M23.705 108.264L42.0387 106.725C42.0387 106.725 43.885 120.069 39.2515 144.224C37.0783 155.552 32.55 177.198 32.55 177.198C31.4277 177.688 30.2864 177.812 29.1243 177.522C29.1243 177.522 28.7802 167.974 28.5703 157.692C28.3688 147.83 28.3141 137.293 27.6858 133.845C26.4019 126.803 23.705 108.264 23.705 108.264Z" fill="black"/>
<path d="M27.4898 108.497C29.3825 118.655 33.6112 133.846 25.4658 148.117C17.3205 162.387 8.76615 177.223 8.76615 177.223C7.66409 177.268 6.66428 176.868 5.7352 176.163C5.7352 176.163 7.16359 169.694 9.22802 162.14C11.5897 153.498 14.5814 143.333 13.729 138.033C12.1318 128.1 10.2968 114.872 10.8532 108.447C11.4089 102.024 26.4942 103.155 27.4898 108.497Z" fill="#6B7FFE"/>
<path opacity="0.07" d="M27.4898 108.497C29.3825 118.655 33.6112 133.846 25.4658 148.117C17.3205 162.387 8.76615 177.223 8.76615 177.223C7.66409 177.268 6.66428 176.868 5.7352 176.163C5.7352 176.163 7.16359 169.694 9.22802 162.14C11.5897 153.498 14.5814 143.333 13.729 138.033C12.1318 128.1 10.2968 114.872 10.8532 108.447C11.4089 102.024 26.4942 103.155 27.4898 108.497Z" fill="black"/>
<path d="M42.7694 106.75L36.0037 64.7563L19.4586 62.4857L10.5666 106.829C10.3996 107.662 10.9393 108.471 11.7745 108.63C14.8548 109.214 22.285 110.433 30.6004 110.433C36.8079 110.433 40.2966 109.226 41.8837 108.462C42.5262 108.151 42.8829 107.455 42.7694 106.75Z" fill="white"/>
<path d="M24.627 65.1005C24.627 68.1255 24.0772 71.122 23.0441 73.9651C21.0225 79.5277 17.9903 90.0454 19.792 99.3124C22.3866 112.657 25.7225 118.051 21.3981 121.16C17.0737 124.27 8.77976 119.081 8.54081 117.351C8.30125 115.622 10.1547 94.3722 12.2553 85.1664C14.356 75.9606 20.239 62.7258 20.239 62.7258L22.7314 62.9921C23.8091 63.1074 24.627 64.0169 24.627 65.1005Z" fill="#FFBE55"/>
<path d="M31.5146 64.1398C31.5146 64.1398 34.3838 70.3414 33.3834 79.2512C32.3824 88.161 30.0636 115.293 38.1715 119.389C40.7388 120.687 46.6022 114.941 46.6022 112.81C46.6022 110.679 44.6453 103.544 42.7913 97.0571C40.9373 90.5702 36.4685 64.8193 36.4685 64.8193L31.5146 64.1398Z" fill="#FFBE55"/>
<path d="M29.2046 44.9199C25.5121 44.9199 24.1342 47.5484 24.064 52.4108C24.0379 54.2315 24.857 56.0361 25.5162 57.1881C26.006 58.0441 26.1404 59.0576 25.861 60.0033L25.0502 62.7477C24.4992 65.2936 25.7082 66.6899 27.4927 67.197C28.3766 67.4478 29.4364 67.2534 30.208 66.7547C31.1258 66.1615 31.2013 64.8859 31.0307 63.8058L30.8214 63.0235C30.5391 61.9696 31.1501 60.8331 32.2165 60.6001C35.0596 59.9783 35.4668 57.0145 36.2289 52.4113C37.0224 47.6132 32.8971 44.9199 29.2046 44.9199Z" fill="#FAB9AF"/>
<path d="M29.0684 42.2171C26.5077 42.2171 22.2778 43.6633 22.8122 47.3589L23.2841 49.9725C23.4726 51.0163 24.3434 51.798 25.4003 51.8883C25.4984 52.2498 25.8259 52.5006 26.2004 52.5006C26.6581 52.5006 27.029 52.1297 27.029 51.672C27.029 50.4932 27.8564 49.4875 29.0066 49.2289C30.4172 48.9121 31.924 48.8366 33.501 49.2604C36.3935 50.0373 39.8269 45.2481 39.8316 45.1999C39.8316 45.1999 38.367 46.321 35.4698 45.257C32.5732 44.193 33.781 42.0739 29.0684 42.2171Z" fill="#6B7FFE"/>
<path d="M26.0994 52.5005C26.0994 53.6281 25.6797 54.5418 24.5943 54.5418C23.5089 54.5418 22.8122 52.9915 22.8122 51.8639C22.8122 50.7363 23.5089 50.4593 24.5943 50.4593C25.6797 50.4593 26.0994 51.3729 26.0994 52.5005Z" fill="#FAB9AF"/>
<path d="M20.5052 50.7785C20.5052 50.7785 20.1135 51.7034 19.1791 53.0046C18.7137 53.6578 18.1091 54.4014 17.3673 55.198C16.6356 56.0058 15.8087 56.9099 14.8933 57.877C13.985 58.8507 12.9828 59.8832 11.9753 61.015C10.9577 62.1355 9.95665 63.3778 9.02221 64.7069C8.11037 66.0473 7.22528 67.4603 6.56131 68.9041C6.23735 69.624 5.95679 70.3515 5.7951 71.0274C5.62688 71.6985 5.57933 72.3304 5.66493 72.7132C5.70772 72.9022 5.77073 73.0258 5.8278 73.0966C5.89378 73.1614 5.95857 73.1875 6.03763 73.241C6.1999 73.3361 6.55359 73.5305 7.13255 73.644L7.45711 73.7249C7.50644 73.7356 7.57599 73.7576 7.60868 73.7594L7.7026 73.7635L8.07649 73.7921L8.51339 73.8111L8.93127 73.7831C9.47516 73.7076 9.94951 73.546 10.3573 73.3165C11.1693 72.8529 11.7625 72.2727 12.4895 71.6878C13.1998 71.0857 13.985 70.3955 14.7019 69.6133C16.1357 68.0464 17.3643 66.2786 18.2833 64.9477C18.7588 64.248 19.1327 63.6988 19.3877 63.3243C19.6588 62.9314 19.824 62.7126 19.824 62.7126L20.6556 62.7394C20.6556 62.7394 20.7977 62.9712 21.0248 63.4236C21.2334 63.8747 21.5294 64.5518 21.7595 65.4482C22.2166 67.2255 22.5072 69.958 21.4004 73.1976C20.8381 74.7966 19.9233 76.5484 18.3546 78.0612C17.5664 78.8078 16.6171 79.4818 15.527 79.9883C14.441 80.5001 13.2153 80.8241 11.9699 80.9542C9.46684 81.2045 6.94471 80.6433 4.93973 79.7018C4.4101 79.4646 3.79428 79.1674 3.21888 78.7923C2.63338 78.3917 2.04252 77.9346 1.52478 77.2997C1.00704 76.6821 0.587977 75.9332 0.328809 75.1551C0.0791522 74.3758 -0.00882211 73.6001 0.00068863 72.8879C0.0357595 71.4595 0.412028 70.304 0.834661 69.2816C1.26443 68.2574 1.78217 67.3723 2.31893 66.5389C3.39364 64.8799 4.55633 63.4426 5.73091 62.1188C6.89181 60.7879 8.0432 59.561 9.12386 58.3954C10.2158 57.241 11.2632 56.1728 12.2773 55.2384C13.2866 54.2992 14.2567 53.4908 15.137 52.8001C16.0067 52.0975 16.827 51.5565 17.5438 51.1613C18.974 50.3659 19.9732 50.1389 19.9732 50.1389L20.5052 50.7785Z" fill="#FFBE55"/>
<path d="M49.2384 110.467C49.2384 110.467 48.6832 109.734 48.2267 108.406C47.9841 107.743 47.8225 106.925 47.6257 105.988C47.4432 105.049 47.256 103.989 47.0979 102.828C46.929 101.668 46.7662 100.409 46.5248 99.0889C46.2817 97.7692 45.953 96.3896 45.6183 94.9701C45.273 93.5524 44.8777 92.0979 44.4491 90.6511C44.2458 89.9205 43.9962 89.2149 43.7804 88.4951C43.5403 87.7919 43.3191 87.1232 43.035 86.3653C42.7717 85.649 42.4875 84.9303 42.2058 84.2254C41.9002 83.5281 41.5965 82.8386 41.2678 82.1746C40.6205 80.8413 39.9369 79.5883 39.371 78.3739C38.7926 77.1619 38.304 75.9926 37.838 74.8739C37.3565 73.7665 36.8964 72.7156 36.4322 71.7425C35.9661 70.7724 35.5233 69.8594 35.0923 69.0462C34.662 68.2343 34.2762 67.4906 33.9332 66.8796C33.5891 66.2441 33.3186 65.7454 33.1337 65.4048C32.9441 65.0553 32.8484 64.8526 32.8484 64.8526L33.2597 64.2695C33.2597 64.2695 33.4815 64.298 33.8863 64.3824C34.0943 64.4175 34.3374 64.4817 34.6222 64.5649C34.9093 64.6451 35.2445 64.7361 35.5994 64.8734C36.321 65.1314 37.1764 65.5076 38.1007 66.048C39.0221 66.5889 40.0302 67.2814 41.0116 68.1712C41.9942 69.0569 42.9845 70.1132 43.869 71.3354C44.7624 72.5492 45.572 73.9187 46.1634 75.4101C46.7798 76.8938 47.1609 78.4957 47.4961 80.0941C47.8076 81.6717 48.1238 83.2743 48.4401 84.8774C48.5875 85.6306 48.7361 86.4889 48.8764 87.3033C48.9899 88.1129 49.1011 88.9243 49.1783 89.7148C49.3537 91.3014 49.469 92.8474 49.5855 94.3388C49.7169 95.8273 49.7953 97.2658 49.9226 98.6205C50.0504 99.9751 50.2162 101.247 50.3375 102.426C50.47 103.603 50.5372 104.688 50.5711 105.651C50.5931 106.617 50.6139 107.457 50.5164 108.162C50.3523 109.566 49.9475 110.398 49.9475 110.398L49.2384 110.467Z" fill="#FFBE55"/>
<path d="M25.0324 50.3493C24.0403 50.8539 23.1005 51.4692 22.6868 51.6285C22.5144 51.6951 21.999 51.7325 21.8504 51.7539C21.4141 51.8163 20.7288 51.8443 20.3917 52.1284L18.9544 53.2988C18.2691 53.876 17.4707 53.9824 16.8936 53.2976C16.2682 52.5558 16.6177 51.6849 17.4268 51.15L18.4188 50.3142C19.0668 49.8856 19.4591 49.2068 19.8799 48.5541C20.7359 47.2262 22.3498 46.3708 23.708 45.8055C24.5604 45.4507 25.6946 45.9613 27.1669 46.7233C27.8903 47.0978 28.9003 47.8943 27.8963 48.1077C27.0552 48.2866 24.7512 47.2797 23.3591 49.3346C23.2907 49.4357 23.1338 49.7073 23.2265 49.8244C23.5035 50.1739 24.3131 49.5985 24.8202 49.4511C25.5317 49.2437 26.0476 49.4303 26.1796 49.699C26.3211 49.9831 25.7409 49.9885 25.0324 50.3493Z" fill="#FAB9AF"/>
<path d="M47.952 115.328C47.974 114.215 47.8736 113.096 47.9283 112.657C47.9508 112.473 48.1601 112.001 48.2118 111.86C48.3622 111.446 48.6606 110.828 48.5684 110.397L48.213 108.578C48.0263 107.701 48.3087 106.947 49.1849 106.76C50.1336 106.558 50.7375 107.276 50.8284 108.242L51.0983 109.511C51.1714 110.285 51.5851 110.951 51.9626 111.629C52.7306 113.01 52.7252 114.836 52.5838 116.301C52.4952 117.22 51.5108 117.98 50.1454 118.92C49.4743 119.382 48.2962 119.897 48.5803 118.912C48.8187 118.085 50.7916 116.527 49.6342 114.331C49.5772 114.223 49.4113 113.957 49.2645 113.983C48.8252 114.063 48.9518 115.049 48.8431 115.565C48.6909 116.29 48.2831 116.658 47.9841 116.648C47.6679 116.637 47.9366 116.123 47.952 115.328Z" fill="#FAB9AF"/>
<path d="M25.6505 57.4491C25.6505 57.4491 28.4086 61.2403 31.8402 60.7267C31.8402 60.7267 31.1275 61.0673 30.9545 61.6213C30.9539 61.6213 27.6947 61.3806 25.6505 57.4491Z" fill="#E8948B"/>
<path fill-rule="evenodd" clip-rule="evenodd" d="M44.4493 24.6999C44.9524 22.6528 44.1087 21.2903 42.0828 20.7928L39.6432 20.1932C37.5957 19.6902 36.2392 20.5117 35.7361 22.5593L35.1689 24.8683C35.1153 25.0865 35.1923 25.2438 35.4317 25.3025L37.6973 25.8591C37.9151 25.9127 38.0779 25.814 38.1315 25.5963L38.5487 23.8971C38.6877 23.3306 39.0453 23.0951 39.6339 23.2396L40.6791 23.4965C41.2239 23.6304 41.476 24.0153 41.337 24.5817L40.5987 27.5881L36.9136 29.8015C36.724 29.9168 36.6215 30.0528 36.5679 30.271L36.0972 32.1875C36.0274 32.4707 36.1427 32.6604 36.4254 32.7301L38.473 33.2332C38.7566 33.3029 38.9463 33.1881 39.0156 32.9045L39.2512 31.9464C39.3098 31.7066 39.4128 31.5705 39.6024 31.4553L43.0218 29.4771C43.2335 29.3673 43.3364 29.2308 43.3951 28.9914L44.4493 24.6999ZM35.9377 34.7126C35.6549 34.6433 35.4652 34.7581 35.3955 35.0413L34.9035 37.0454C34.8333 37.3287 34.9486 37.5183 35.2314 37.588L37.2789 38.0911C37.5625 38.1608 37.7522 38.0456 37.8219 37.7624L38.3139 35.7582C38.3841 35.475 38.2689 35.2854 37.9852 35.2156L35.9377 34.7126Z" fill="#FFBE55"/>
</svg>
